<svg width="251" height="207" viewBox="0 0 251 207" fill="none" xmlns="http://www.w3.org/2000/svg">
<path d="M245.119 156.94C245.119 156.94 248.189 108.344 231.824 97.9885C219.553 88.4298 215.46 87.6328 207.277 86.8358C207.277 86.8358 213.413 66.1217 191.936 47.0045C181.707 38.2401 169.435 37.4459 145.912 23.1052C124.239 9.89376 125.458 1.59686 125.458 1.59686H124.434C124.434 1.59686 125.458 13.5465 91.7051 29.4785C57.9526 45.4105 48.7471 50.9868 44.6577 67.7186C41.588 80.4653 42.6112 86.8386 42.6112 86.8386C42.6112 86.8386 16.0178 90.8209 9.88196 109.144C3.74251 127.464 5.78899 160.128 5.78899 160.128L4.76575 203.147C4.76575 203.147 4.76575 203.944 12.9481 203.944C21.1304 203.944 95.7909 203.147 109.089 203.147C122.388 203.147 225.685 203.147 235.914 203.147C246.142 203.147 245.119 204.741 245.119 199.165C245.119 193.586 245.119 156.94 245.119 156.94ZM241.026 138.617C241.026 138.617 241.026 172.872 241.026 174.466C241.026 176.06 240.003 200.756 240.003 200.756L150.001 199.959L17.041 200.756H9.88196V169.687C9.88196 169.687 8.85871 130.649 9.88196 124.276C10.9052 117.903 9.88196 114.717 20.1108 101.971C30.3396 89.2241 41.588 90.8181 44.6577 90.8181C47.7274 90.8181 46.7042 80.4625 46.7042 80.4625L47.7274 71.6981C51.8168 50.984 66.1386 47.7987 66.1386 47.7987L86.5925 36.646C86.5925 36.646 92.7284 34.255 98.8642 30.2727C121.365 21.5083 125.458 7.96739 125.458 7.96739L127.504 11.9497C131.59 21.5083 136.702 22.3053 146.931 27.8816C159.203 37.4403 186.82 46.2047 196.025 57.3573C205.231 68.51 204.207 90.8181 204.207 90.8181C217.502 90.0211 220.572 93.2092 226.708 97.9885C241.026 111.532 240.003 121.888 240.003 125.87C240.003 129.852 241.026 132.243 241.026 132.243V138.617Z" fill="#8D84C6"/>
<path d="M124.431 0.796997C124.431 0.796997 119.318 3.18806 123.408 5.5763L124.431 0.796997Z" fill="#FF93BA"/>
<path d="M119.705 10.7753C119.318 11.1526 123.411 7.96738 123.411 5.57631C123.411 5.57631 120.341 4.77929 119.322 7.17036C118.295 9.5586 119.705 10.7753 119.705 10.7753Z" fill="#FF93BA"/>
<path d="M112.647 17.2134C112.647 17.2134 111.132 14.3407 114.202 11.9497C117.272 9.5586 119.315 11.1526 119.315 11.1526L112.647 17.2134Z" fill="#FF93BA"/>
<path d="M102.107 24.0993C102.107 24.0993 100.907 19.9143 105 18.323C109.089 16.729 110.113 16.729 110.113 16.729H112.528L102.107 24.0993Z" fill="#FF93BA"/>
<path d="M93.7479 27.8817C93.7479 27.8817 91.7015 26.2876 95.7944 23.8994C99.8838 21.5083 102.954 23.1024 102.954 23.1024L93.7479 27.8817Z" fill="#FF93BA"/>
<path d="M83.7687 33.2524L93.9902 28.3745C93.9902 28.3745 90.6783 27.0846 87.6085 28.6786C84.5424 30.2727 83.7687 33.2524 83.7687 33.2524Z" fill="#FF93BA"/>
<path d="M74.1292 38.0232L83.5191 33.4608C83.5191 33.4608 80.4494 32.6638 77.3833 34.2578C74.3136 35.849 74.1292 38.0232 74.1292 38.0232Z" fill="#FF93BA"/>
<path d="M66.1313 41.4253L74.2196 37.6064C74.2196 37.6064 71.2439 36.6432 68.1778 38.2373C65.1117 39.8313 66.1313 41.4253 66.1313 41.4253Z" fill="#FF93BA"/>
<path d="M58.9722 46.2047L66.1313 41.4254C66.1313 41.4254 62.042 41.4254 59.9955 43.0194C57.949 44.6134 58.9722 46.2047 58.9722 46.2047Z" fill="#FF93BA"/>
<path d="M52.6701 52.2203L58.9722 46.2046C58.9722 46.2046 54.8829 45.4076 52.8364 48.5957C51.8132 50.9868 52.6701 52.2203 52.6701 52.2203Z" fill="#FF93BA"/>
<path d="M51.8132 52.578C51.8132 52.578 47.5395 59.4358 47.12 60.3877C46.7006 61.3424 45.6774 57.3573 47.7202 54.9691C49.7667 52.578 51.8132 52.578 51.8132 52.578Z" fill="#FF93BA"/>
<path d="M46.7874 61.1425L44.7445 67.3496C44.7445 67.3496 41.5844 65.3247 42.6076 62.9336C43.6309 60.5454 46.7874 61.1425 46.7874 61.1425Z" fill="#FF93BA"/>
<path d="M44.6541 67.7158L42.6076 74.0891C42.6076 74.0891 40.5611 73.2921 41.5844 70.1068C42.6076 66.9187 44.6541 67.7158 44.6541 67.7158Z" fill="#FF93BA"/>
<path d="M42.6076 74.8861C42.6076 74.8861 41.5843 78.0714 42.6076 80.4624C42.6076 80.4624 39.5378 80.4624 39.5378 78.0714C39.5415 75.6831 41.5879 75.6831 42.6076 74.8861Z" fill="#FF93BA"/>
<path d="M42.6076 81.2595V86.0388C42.6076 86.0388 39.5378 84.4447 39.5378 82.8535C39.5378 81.2595 42.6076 80.761 42.6076 80.761V81.2595Z" fill="#FF93BA"/>
<path d="M36.0669 88.3735C36.4718 88.427 43.6309 86.8358 43.6309 86.8358C43.6309 86.8358 40.5612 83.6505 37.4951 85.2418C34.429 86.833 36.0669 88.3735 36.0669 88.3735Z" fill="#FF93BA"/>
<path d="M30.336 86.8358C34.1072 85.3657 35.6294 88.5059 35.6294 88.5059L28.9042 90.9617C28.9042 90.9617 28.2895 87.6328 30.336 86.8358Z" fill="#FF93BA"/>
<path d="M25.2234 90.021C27.1252 89.0325 29.1862 90.8378 29.1862 90.8378L23.5963 93.6372C23.5927 93.64 22.1536 91.6151 25.2234 90.021Z" fill="#FF93BA"/>
<path d="M20.1071 93.2091C18.8127 93.7132 18.5668 94.9834 19.337 96.4873L23.1732 94.0062C23.1768 94.0062 22.1536 92.4121 20.1071 93.2091Z" fill="#FF93BA"/>
<path d="M14.9946 97.9885C14.3474 98.9967 14.6005 101.224 14.6005 101.224L19.3407 96.6929C19.3371 96.6929 16.0179 96.3944 14.9946 97.9885Z" fill="#FF93BA"/>
<path d="M13.9894 101.669L10.5473 107.389C10.5473 107.389 8.85874 105.956 9.88198 103.565C10.9016 101.174 13.9894 101.669 13.9894 101.669Z" fill="#FF93BA"/>
<path d="M10.3014 107.989L8.50079 115.438C8.50079 115.438 6.81226 113.92 6.81226 111.532C6.81226 109.938 8.67434 106.837 10.3014 107.989Z" fill="#FF93BA"/>
<path d="M7.83543 115.514L6.81219 122.685C6.81219 122.685 3.74247 121.091 4.76571 117.906C5.78895 114.717 7.83543 115.514 7.83543 115.514Z" fill="#FF93BA"/>
<path d="M6.81226 124.279L5.89387 133.269C5.89387 133.269 2.72291 132.246 2.72291 129.855C2.71929 127.464 3.74254 123.482 6.81226 124.279Z" fill="#FF93BA"/>
<path d="M5.78896 133.837L5.56479 140.304C5.56479 140.304 2.71924 139.414 2.71924 137.82C2.71924 136.229 4.76572 133.04 5.78896 133.837Z" fill="#FF93BA"/>
<path d="M5.78896 147.381C5.78896 147.381 2.71924 146.584 2.71924 143.399C2.71924 140.214 5.7275 139.864 5.7275 139.864L5.78896 147.381Z" fill="#FF93BA"/>
<path d="M5.789 156.94V148.175C5.789 148.175 3.74252 147.378 2.71928 149.769C1.69603 152.16 1.69965 156.143 5.789 156.94Z" fill="#FF93BA"/>
<path d="M5.78898 164.11V156.94C5.78898 156.94 3.7425 156.94 2.71926 158.534C1.69963 160.128 1.69963 164.907 5.78898 164.11Z" fill="#FF93BA"/>
<path d="M5.5323 170.881L5.68415 164.566C5.68415 164.566 2.7229 163.313 2.7229 164.904C2.7229 166.496 3.23271 170.484 5.5323 170.881Z" fill="#FF93BA"/>
<path d="M5.41657 179.744C5.94446 179.808 5.7926 171.281 5.7926 171.281L4.76936 170.484C4.76936 170.484 0.680005 172.078 2.72287 178.451C2.71926 178.451 2.99405 179.445 5.41657 179.744Z" fill="#FF93BA"/>
<path d="M5.78906 180.839L5.29732 188.956C5.29732 188.956 1.69971 185.618 1.69971 182.433C1.69971 179.248 5.78906 180.042 5.78906 180.042V180.839Z" fill="#FF93BA"/>
<path d="M5.17071 195.726L5.3515 188.06C5.3515 188.06 1.69965 188.007 0.676405 190.398C-0.346837 192.789 4.76576 196.771 4.76576 196.771L5.17071 195.726Z" fill="#FF93BA"/>
<path d="M4.76581 202.798V195.977C4.76581 195.977 2.71932 195.18 1.69608 196.774C0.672841 198.368 0.676456 201.652 4.76581 202.798Z" fill="#FF93BA"/>
<path d="M5.78906 203.944H17.0411C17.0411 203.944 14.9946 206.335 10.9053 206.335C6.81592 206.335 5.79268 204.741 5.79268 204.741V203.944H5.78906Z" fill="#FF93BA"/>
<path d="M18.2559 203.913L28.2931 203.942C28.2931 203.942 26.2466 206.333 21.134 206.333C16.0214 206.333 17.0447 203.942 17.0447 203.942L18.2559 203.913Z" fill="#FF93BA"/>
<path d="M30.3359 203.147H40.5647C40.5647 203.147 39.5414 206.333 34.4288 206.333C29.3163 206.333 27.4976 205.485 27.8953 204.316C28.293 203.147 27.2698 203.147 27.2698 203.147H30.3359Z" fill="#FF93BA"/>
<path d="M41.5879 203.147H49.7703C49.7703 203.147 49.7703 205.538 45.6809 205.538C41.5916 205.538 41.0781 203.677 41.0781 203.677L41.5879 203.147Z" fill="#FF93BA"/>
<path d="M51.8131 203.147H59.9954C59.9954 203.147 58.9722 205.538 55.906 205.538C52.8363 205.538 50.7935 203.944 50.7935 203.944L51.8131 203.147Z" fill="#FF93BA"/>
<path d="M62.042 203.147H73.294C73.294 203.147 73.294 204.741 68.1814 205.538C63.0688 206.335 61.4707 203.525 61.4707 203.525L62.042 203.147Z" fill="#FF93BA"/>
<path d="M79.4299 203.147H85.5657C85.5657 203.147 82.496 206.333 79.4299 206.333C76.3637 206.333 74.3173 203.147 74.3173 203.147H79.4299Z" fill="#FF93BA"/>
<path d="M89.655 203.147H94.7676C94.7676 203.147 92.7211 205.538 89.655 205.538C86.5853 205.538 85.5657 204.741 85.5657 203.944C85.5657 203.147 85.5657 203.147 85.5657 203.147H89.655Z" fill="#FF93BA"/>
<path d="M94.7712 203.147H105C105 203.147 102.954 206.333 98.8642 206.333C94.7712 206.333 94.7712 203.147 94.7712 203.147Z" fill="#FF93BA"/>
<path d="M106.02 203.147H114.202C114.202 203.147 113.179 206.333 109.089 206.333C105 206.333 105 203.147 105 203.147H106.02Z" fill="#FF93BA"/>
<path d="M115.225 202.35H123.408C123.408 202.35 121.361 205.535 117.272 205.535C113.182 205.535 114.202 202.35 114.202 202.35H115.225Z" fill="#FF93BA"/>
<path d="M127.501 202.35L135.683 203.147C135.683 203.147 136.706 206.333 131.593 205.538C126.477 204.738 127.501 202.35 127.501 202.35Z" fill="#FF93BA"/>
<path d="M136.702 203.147H144.885C144.885 203.147 144.885 206.333 140.795 206.333C136.706 206.333 135.683 203.147 135.683 203.147H136.702Z" fill="#FF93BA"/>
<path d="M147.955 203.147H155.114C155.114 203.147 156.137 206.333 150.001 206.333C146.931 206.333 144.888 203.147 144.888 203.147H147.955Z" fill="#FF93BA"/>
<path d="M156.137 203.147H165.342C165.342 203.147 164.319 206.333 160.23 205.538C156.14 204.741 156.14 203.944 156.14 203.944V203.147H156.137Z" fill="#FF93BA"/>
<path d="M166.449 203.147H175.568C175.568 203.147 175.568 206.333 170.455 206.333C165.342 206.333 164.746 203.147 164.746 203.147H166.449Z" fill="#FF93BA"/>
<path d="M176.591 203.147H188.993C188.993 203.147 187.843 206.333 181.707 205.538C175.568 204.738 176.591 203.147 176.591 203.147Z" fill="#FF93BA"/>
<path d="M190.909 203.147H199.091C199.091 203.147 199.091 204.741 198.068 204.741C197.045 204.741 193.979 205.538 191.932 204.741C189.886 203.944 189.546 203.147 189.546 203.147H190.909Z" fill="#FF93BA"/>
<path d="M201.055 203.147H208.98C208.98 203.147 209.32 205.538 205.231 205.538C201.141 205.538 200.118 203.944 200.118 203.944L200.823 203.147H201.055Z" fill="#FF93BA"/>
<path d="M210.343 203.147L222.615 203.944C222.615 203.944 221.592 206.335 217.502 206.335C213.413 206.335 210.343 205.538 209.32 203.944L209.49 203.147H210.343Z" fill="#FF93BA"/>
<path d="M222.615 203.944H232.844C232.844 203.944 232.844 206.335 227.731 206.335C222.619 206.335 222.615 203.944 222.615 203.944Z" fill="#FF93BA"/>
<path d="M233.867 203.944H245.119C245.119 203.944 244.096 206.335 238.983 206.335C233.867 206.333 233.867 203.944 233.867 203.944Z" fill="#FF93BA"/>
<path d="M245.119 202.581V195.543C245.119 195.543 249.208 195.974 249.208 199.162C249.208 202.35 245.119 202.581 245.119 202.581Z" fill="#FF93BA"/>
<path d="M244.096 188.01L245.119 195.977C245.119 195.977 247.166 195.977 248.189 194.383C249.212 192.789 251.259 190.401 247.166 188.807C245.119 188.01 244.096 188.01 244.096 188.01Z" fill="#FF93BA"/>
<path d="M244.096 180.042C244.096 180.042 248.185 180.042 248.185 181.636C248.185 183.23 247.715 186.483 245.904 188.44L244.092 188.807V180.042H244.096Z" fill="#FF93BA"/>
<path d="M244.096 170.484C244.096 170.484 247.166 170.484 247.166 172.078C247.166 173.672 247.166 176.857 247.166 176.857C247.166 176.857 248.189 180.042 244.096 179.248V170.484Z" fill="#FF93BA"/>
<path d="M244.096 164.907V170.717C244.096 170.717 245.119 171.281 246.142 169.689C247.166 168.095 248.189 166.504 246.142 164.91L244.096 164.113V164.907Z" fill="#FF93BA"/>
<path d="M244.096 156.94C244.096 156.94 247.166 156.94 247.166 158.534C247.166 160.128 248.189 163.313 246.142 164.11C244.096 164.907 244.472 164.257 244.472 164.257L244.096 156.94Z" fill="#FF93BA"/>
<path d="M245.119 147.381C245.119 147.381 246.142 148.178 247.166 149.772C248.189 151.366 247.166 156.146 244.096 157.74V148.181L245.119 147.381Z" fill="#FF93BA"/>
<path d="M245.119 140.211C245.119 140.211 247.166 140.211 247.166 141.008C247.166 141.805 248.189 146.584 244.096 147.381V140.211H245.119Z" fill="#FF93BA"/>
<path d="M244.79 133.463C244.79 133.463 247.162 134.634 247.162 137.023C247.162 139.414 244.092 140.208 244.092 140.208V133.835L244.79 133.463Z" fill="#FF93BA"/>
<path d="M244.096 124.279C244.096 124.279 247.166 124.279 247.166 125.873C247.166 127.467 247.35 132.976 244.7 132.612L244.096 132.246V124.279Z" fill="#FF93BA"/>
<path d="M241.026 114.717L243.535 122.992C243.535 122.992 244.096 122.685 245.119 121.091C246.142 119.497 245.119 116.311 243.073 115.514C241.026 114.717 241.026 114.717 241.026 114.717Z" fill="#FF93BA"/>
<path d="M239.366 107.815L241.532 114.915C241.532 114.915 244.096 113.123 243.073 109.938C242.049 106.75 239.366 107.815 239.366 107.815Z" fill="#FF93BA"/>
<path d="M235.74 101.596L239.367 107.646C239.367 107.646 242.049 106.753 240.003 103.568C237.956 100.379 235.74 101.596 235.74 101.596Z" fill="#FF93BA"/>
<path d="M230.559 97.014L235.827 101.74C235.827 101.74 236.937 97.9885 233.867 97.1914C230.797 96.3944 230.559 97.014 230.559 97.014Z" fill="#FF93BA"/>
<path d="M225.685 93.2092C225.685 93.2092 227.731 92.4121 229.774 93.2092C231.821 94.0062 230.797 97.1914 230.797 97.1914L225.685 93.2092Z" fill="#FF93BA"/>
<path d="M220.572 90.8181C220.572 90.8181 222.619 88.4271 224.661 90.0211C226.704 91.6151 226.364 93.7386 226.364 93.7386L220.572 90.8181Z" fill="#FF93BA"/>
<path d="M214.433 88.427C214.433 88.427 215.456 86.036 219.545 86.833C221.592 87.63 220.937 91.0012 220.937 91.0012L214.433 88.427Z" fill="#FF93BA"/>
<path d="M207.274 86.8358C207.274 86.8358 209.32 83.6505 212.386 85.2418C215.452 86.833 214.704 88.5369 214.704 88.5369L207.274 86.8358Z" fill="#FF93BA"/>
<path d="M207.274 80.4625V86.0388C207.274 86.0388 210.343 84.4447 210.343 82.8535C210.343 81.2595 207.274 80.4625 207.274 80.4625Z" fill="#FF93BA"/>
<path d="M207.274 74.8861V81.2595C207.274 81.2595 211.363 79.6654 210.343 77.2772C209.32 74.8861 207.274 74.8861 207.274 74.8861Z" fill="#FF93BA"/>
<path d="M205.231 66.9187L207.277 74.0891C207.277 74.0891 210.347 72.495 209.324 70.1068C208.297 67.7157 205.231 66.9187 205.231 66.9187Z" fill="#FF93BA"/>
<path d="M203.184 60.5454L205.473 67.7721C205.473 67.7721 208.297 65.3247 207.274 62.9337C206.25 60.5454 203.184 60.5454 203.184 60.5454Z" fill="#FF93BA"/>
<path d="M198.072 52.578L203.184 61.3424C203.184 61.3424 204.207 58.1571 203.184 55.7661C202.161 53.375 198.072 52.578 198.072 52.578Z" fill="#FF93BA"/>
<path d="M191.133 46.3342L197.048 51.781C197.048 51.781 199.095 50.1869 196.025 47.7987C192.955 45.4104 191.133 46.3342 191.133 46.3342Z" fill="#FF93BA"/>
<path d="M183.905 41.676C183.905 41.676 188.866 44.6134 190.909 46.2046C190.909 46.2046 192.955 45.4076 189.886 43.0194C186.82 40.6283 183.905 41.676 183.905 41.676Z" fill="#FF93BA"/>
<path d="M175.394 37.7754L183.75 41.4254C183.75 41.4254 183.75 39.0343 180.68 37.4431C177.614 35.849 175.394 37.7754 175.394 37.7754Z" fill="#FF93BA"/>
<path d="M166.366 33.4608L176.168 38.0091C176.168 38.0091 175.571 35.0548 172.501 34.2578C169.432 33.4608 169.432 32.6637 166.366 33.4608Z" fill="#FF93BA"/>
<path d="M155.114 27.8816L166.366 33.4579V32.6609C166.366 32.6609 165.342 30.2699 161.253 28.6786C157.16 27.0874 155.114 27.8816 155.114 27.8816Z" fill="#FF93BA"/>
<path d="M146.931 23.1023L156.35 28.4956C156.35 28.4956 158.18 27.0846 155.114 24.6964C152.044 22.3053 150.001 21.5083 146.931 23.1023Z" fill="#FF93BA"/>
<path d="M137.726 17.526L146.931 23.1023C146.931 23.1023 150.001 23.1023 145.908 18.323C143.862 15.932 138.749 15.932 137.726 16.729C136.703 17.526 137.726 17.526 137.726 17.526Z" fill="#FF93BA"/>
<path d="M130.567 11.1527C130.567 11.1527 134.656 10.3556 136.702 12.7467C138.749 15.1378 137.726 17.526 137.726 17.526L130.567 11.1527Z" fill="#FF93BA"/>
<path d="M126.477 5.57631C126.477 5.57631 129.547 4.77929 130.567 7.17036C131.59 9.56142 130.191 10.8062 130.191 10.8062L126.477 5.57631Z" fill="#FF93BA"/>
<path d="M126.477 0.79702C126.477 0.79702 128.524 0.79702 128.524 2.39106C128.524 3.9851 126.477 5.57633 126.477 5.57633L125.454 0L126.477 0.79702Z" fill="#FF93BA"/>
<path d="M3.4894 179.913C1.96719 179.231 2.16244 178.034 2.06481 177.026C1.93827 175.747 1.50077 174.466 1.92742 173.151C2.1299 172.534 2.46977 172.01 3.02297 171.602C3.72803 171.078 3.86543 170.56 3.31946 169.946C2.35407 168.861 1.8768 167.676 1.8768 166.346C1.8768 165.727 2.03227 165.203 2.59632 164.778C3.06998 164.42 3.28692 164.121 2.66864 163.688C2.23837 163.386 2.1986 162.891 2.14798 162.449C2.02504 161.359 1.89488 160.269 1.84426 159.176C1.80448 158.317 2.39384 157.658 3.30861 157.247C3.83651 157.01 3.75334 156.813 3.50025 156.526C1.79364 154.594 1.64178 152.411 1.82979 150.178C1.91657 149.158 2.88196 148.519 3.68826 147.857C4.03537 147.573 4.02452 147.39 3.86181 147.15C2.87473 145.703 2.20221 144.182 2.15521 142.537C2.1299 141.661 2.10097 140.743 3.19653 140.143C3.6051 139.918 3.88351 139.636 3.34477 139.346C2.49508 138.893 2.28899 138.211 2.24922 137.507C2.16967 136.051 2.61078 134.699 3.89074 133.581C4.22338 133.291 4.29208 133.147 3.86905 132.784C2.95789 131.998 2.27814 131.117 2.22391 129.951C2.15521 128.478 2.13351 127.05 2.76988 125.631C3.14952 124.783 3.80758 124.13 4.76935 123.755C5.62266 123.42 5.53588 123.18 5.08392 122.648C4.20892 121.612 3.94859 120.474 3.91967 119.195C3.89797 118.269 4.23423 117.494 4.49818 116.663C4.7332 115.923 5.18154 115.292 6.11801 114.962C6.66036 114.771 6.65313 114.551 6.49043 114.112C5.79621 112.2 5.73113 110.29 7.07617 108.505C7.53898 107.891 8.28019 107.465 9.10457 107.153C7.84631 105.232 8.68877 102.886 10.9088 101.526C11.462 101.188 12.1418 101.151 12.7926 101.075C13.2012 101.027 13.4073 101.01 13.3964 100.574C13.3494 98.4081 15.2043 96.662 17.9269 96.2508C18.2957 96.1945 18.3535 96.0846 18.3065 95.834C18.0932 94.7243 18.8344 93.8682 19.619 93.0542C20.1758 92.4769 21.0436 92.3868 21.9041 92.4797C22.461 92.5388 22.6924 92.4684 22.8587 91.9953C23.4336 90.3449 25.4981 88.9171 27.8339 89.2071C28.2858 89.2635 28.3907 89.0353 28.4196 88.8129C28.5679 87.6722 29.4175 86.9146 30.7228 86.5823C31.9196 86.2782 33.2176 86.219 34.4181 86.6724C34.9351 86.8668 35.1376 86.6837 35.3509 86.3739C36.1536 85.2164 37.2166 84.3377 39.0606 84.3152C39.4222 84.3095 39.5162 84.2476 39.4439 83.8956C39.2305 82.8563 38.9666 81.7692 40.2176 80.9469C40.5467 80.73 40.2646 80.5976 40.1019 80.4399C38.7388 79.0937 38.4351 77.618 39.2414 76.0211C39.527 75.4522 39.9609 74.9819 40.7564 74.7425C41.3674 74.5594 41.6639 74.3116 41.1505 73.7314C40.0079 72.4444 40.1417 69.6083 41.2915 68.3438C41.4253 68.1945 41.5627 67.9974 41.7543 67.9411C43.1174 67.5496 42.9692 66.9497 42.5172 66.0175C41.447 63.818 42.7595 61.2466 45.4748 60.3511C45.934 60.199 45.84 59.9793 45.8183 59.7258C45.6303 57.746 46.1871 55.9097 47.5466 54.2199C48.4253 53.1272 49.651 52.3837 51.2455 52.0654C51.7987 51.9556 51.8312 51.7613 51.777 51.4064C51.3829 48.7365 54.0585 46.0075 57.4175 45.7005C57.9743 45.6498 58.0575 45.3767 58.0213 45.1344C57.8297 43.8249 58.9361 43.0419 59.9702 42.29C61.2284 41.3775 62.7796 40.8621 64.5332 40.8227C65.0791 40.8114 65.3539 40.7607 65.4841 40.2031C65.7661 39.023 66.9846 38.3133 68.1923 37.6881C69.7036 36.9051 71.3415 36.3757 73.2217 36.784C73.6303 36.8713 73.652 36.6376 73.7677 36.4602C75.1055 34.3958 77.4448 33.3397 80.1385 32.6609C80.5471 32.5567 81.0461 32.4497 81.4257 32.5427C82.6767 32.844 83.154 32.3596 83.7036 31.5738C84.7883 30.0192 86.5021 28.9096 88.4763 28.045C89.4779 27.6056 90.5734 27.4902 91.6834 27.4845C92.2113 27.4817 92.4789 27.4789 92.4174 26.9607C92.2619 25.6652 93.4985 24.9611 94.5181 24.1922C96.2934 22.8573 98.2676 21.8068 100.864 21.7758C101.247 21.7702 101.413 21.6435 101.457 21.3731C101.872 18.7652 104.165 17.5232 107.025 16.6304C108.222 16.2587 109.422 15.9714 110.688 15.8447C111.085 15.8052 111.165 15.701 111.197 15.4166C111.461 13.0987 113.128 11.5413 115.695 10.5105C116.227 10.2965 116.863 10.2824 117.474 10.2768C118.017 10.2711 118.346 10.105 118.266 9.61776C118.208 9.25727 118.165 8.89115 118.186 8.52784C118.273 7.11968 119.315 6.09453 120.595 5.23274C121.007 4.95674 121.188 4.77086 121.148 4.35686C121.065 3.43874 121.13 2.53188 121.672 1.67572C122.196 0.844902 123.064 0.160534 124.131 0.0760446C125.1 3.74764e-06 126.268 -0.109833 127.197 0.563269C128.108 1.22511 128.715 1.99115 128.802 2.92898C128.903 4.04143 128.849 5.04686 130.198 5.91429C131.463 6.72539 132.136 7.95331 131.734 9.36992C131.586 9.89376 131.792 10.3275 132.707 10.2965C135.73 10.1951 138.68 13.1832 138.789 15.1603C138.818 15.7151 139.071 15.8109 139.689 15.8841C142.075 16.1685 144.248 16.8867 146.201 18.002C147.56 18.7765 148.193 19.8889 148.493 21.1196C148.605 21.5843 148.764 21.7646 149.419 21.7956C151.65 21.9082 153.501 22.6911 155.056 23.9191C155.573 24.3274 156.097 24.7189 156.661 25.0878C157.402 25.5694 157.608 26.2791 157.587 27.0029C157.576 27.3775 157.652 27.4902 158.18 27.4789C160.559 27.4169 162.378 28.3491 164.091 29.5151C165.299 30.3347 166.25 31.2753 166.886 32.4103C166.995 32.6018 167.092 32.6722 167.4 32.6497C171.366 32.3568 174.107 33.8635 176.142 36.3419C176.403 36.6573 176.511 36.8066 177.093 36.7221C180.062 36.294 183.844 38.2035 184.542 40.4481C184.661 40.8311 184.976 40.7973 185.29 40.8086C188.013 40.9156 190.066 41.8957 191.534 43.67C191.835 44.0304 192.051 44.3769 191.976 44.8359C191.889 45.3513 192.044 45.6273 192.908 45.7202C194.752 45.923 196.13 46.782 197.099 48.0296C197.945 49.1224 198.614 50.2433 198.209 51.5754C198.14 51.8035 198.249 51.9387 198.589 52.0204C201.337 52.6907 202.812 54.1974 203.68 56.3153C204.16 57.4869 204.095 58.6134 204.168 59.7681C204.186 60.0497 204.175 60.2159 204.583 60.3623C207.588 61.4325 208.651 64.3052 207.194 66.6484C206.959 67.0286 206.89 67.3102 207.368 67.4904C209.147 68.1636 209.486 69.445 209.595 70.763C209.689 71.9036 209.711 73.0865 208.579 74.0159C208.232 74.3003 208.51 74.3904 208.778 74.5341C211.533 75.9929 211.999 78.3924 209.92 80.4174C209.725 80.6089 209.483 80.7328 209.823 80.9891C210.799 81.727 210.712 82.6479 210.51 83.5801C210.419 83.9885 210.332 84.3321 211.153 84.3349C212.788 84.3405 213.728 85.2389 214.501 86.1824C214.899 86.664 215.138 86.864 215.879 86.588C217.629 85.9402 219.209 86.4781 220.677 87.1991C221.252 87.4835 221.342 88.0919 221.494 88.6016C221.621 89.0297 221.769 89.2409 222.488 89.1762C224.087 89.0353 226.524 90.1168 227.178 92.015C227.268 92.2797 227.243 92.5248 227.832 92.4966C230.027 92.3952 231.806 93.8344 231.708 95.6255C231.683 96.11 231.755 96.2705 232.414 96.248C233.061 96.2254 233.675 96.4395 234.145 96.7943C235.53 97.842 236.615 99.0305 236.593 100.613C236.59 101.016 236.807 101.047 237.168 101.058C240.607 101.171 242.317 104.841 241.088 106.804C240.957 107.009 240.824 107.133 241.192 107.291C243.177 108.136 243.85 109.586 243.94 111.217C243.998 112.25 244.009 113.318 243.423 114.298C243.253 114.579 243.347 114.734 243.68 114.853C245.452 115.483 245.752 116.827 245.965 118.063C246.258 119.773 246.189 121.51 244.649 122.966C244.432 123.172 244.418 123.417 244.79 123.552C247.274 124.453 247.704 126.25 247.845 128.064C247.983 129.838 247.849 131.627 245.929 132.953C245.448 133.285 246.016 133.452 246.2 133.632C247.545 134.967 248.001 136.465 247.646 138.127C247.549 138.589 247.296 139.005 246.826 139.256C246.204 139.591 246.269 139.864 246.818 140.138C247.451 140.45 247.614 140.892 247.712 141.447C248.069 143.421 247.466 145.232 246.247 146.928C245.741 147.629 246.182 148.119 246.775 148.423C247.683 148.894 248.116 149.527 248.182 150.29C248.377 152.496 248.182 154.65 246.497 156.56C246.359 156.714 246.019 156.954 246.482 157.137C248.268 157.838 248.257 159.106 248.156 160.384C248.102 161.085 247.983 161.784 247.863 162.48C247.809 162.786 247.816 163.195 247.57 163.372C246.594 164.093 247.332 164.538 247.766 165.189C248.532 166.341 248.088 167.571 247.567 168.743C247.513 168.864 247.397 168.968 247.307 169.078C246.113 170.593 246.106 170.599 247.393 171.982C248.091 172.731 248.326 173.565 248.221 174.474C248.08 175.668 247.961 176.865 247.802 178.059C247.708 178.766 247.549 179.468 246.518 179.884C249.454 181.278 248.576 183.357 248.229 185.306C248.077 186.159 247.628 186.967 246.967 187.674C246.612 188.055 246.782 188.221 247.27 188.345C247.491 188.401 247.701 188.488 247.91 188.57C249.83 189.333 250.43 189.947 249.704 192.113C249.339 193.206 248.811 194.245 248.08 195.211C247.802 195.577 247.86 195.768 248.2 196.078C249.006 196.819 249.66 197.613 249.725 198.65C249.83 200.334 248.33 202.328 246.352 203.012C246.066 203.111 245.687 203.116 245.661 203.482C245.52 205.53 243.434 206.364 241.326 206.51C239.681 206.625 237.993 206.775 236.333 206.335C235.418 206.093 234.655 205.735 233.965 205.237C233.556 204.941 233.216 204.702 232.786 205.333C232.204 206.183 231.108 206.611 229.926 206.797C227.301 207.211 224.839 207.034 222.854 205.417C222.785 205.361 222.709 205.307 222.626 205.262C222.572 205.234 222.503 205.229 222.409 205.206C221.758 206.104 220.644 206.445 219.419 206.6C218.33 206.738 217.235 206.856 216.132 206.913C213.623 207.045 211.442 206.38 209.631 205.057C209.172 204.722 209.013 204.781 208.666 205.079C207.324 206.237 203.506 206.73 201.836 205.896C201.206 205.581 200.624 205.172 200.013 204.815C199.825 204.705 199.644 204.527 199.406 204.693C198.375 205.409 197.059 205.42 195.815 205.558C194.828 205.668 193.816 205.654 192.811 205.648C191.437 205.643 190.551 204.93 189.698 204.226C189.333 203.922 189.137 203.851 188.823 204.265C188.374 204.848 187.622 205.161 186.852 205.437C184.224 206.378 181.559 206.761 178.836 205.682C177.968 205.338 176.902 205.226 176.388 204.432C176.215 204.161 175.976 204.248 175.788 204.479C174.233 206.4 171.804 206.634 169.236 206.431C167.765 206.316 166.344 205.941 165.288 205.043C165.046 204.834 164.894 204.823 164.663 205.045C164.033 205.645 163.14 205.721 162.222 205.814C160.074 206.034 158.046 205.814 156.173 204.936C155.858 204.789 155.71 204.927 155.511 205.096C153.779 206.575 150.102 207.023 147.871 206.037C147.112 205.702 146.349 205.369 145.601 205.017C145.311 204.879 145.105 204.744 144.95 205.124C144.737 205.645 144.151 205.907 143.551 206.051C141.667 206.507 139.765 206.721 137.849 206.11C137.227 205.913 136.764 205.603 136.384 205.189C136.175 204.961 136.026 204.846 135.618 205.122C133.654 206.445 129.901 206.276 128.104 204.781C127.407 204.198 126.539 203.756 125.975 203.051C125.638 202.629 124.116 202.914 123.592 203.378C122.627 204.24 121.752 205.26 120.341 205.657C118.248 206.245 116.136 206.197 114.285 205.045C113.934 204.826 113.826 205.009 113.652 205.15C111.725 206.696 107.893 206.955 105.644 205.688C105.564 205.643 105.412 205.626 105.391 205.572C104.942 204.474 104.252 205.119 103.597 205.409C102.928 205.707 102.259 206.014 101.565 206.273C100.249 206.769 98.8642 206.654 97.5336 206.375C96.3694 206.133 95.0894 205.972 94.3952 205.02C94.1746 204.716 93.8854 204.919 93.6251 205.034C91.3833 206.026 89.0042 206.071 86.56 205.64C86.4298 205.617 86.296 205.597 86.1731 205.555C85.2583 205.248 84.5894 205.319 83.6602 205.685C80.9774 206.747 78.2728 206.859 75.6008 205.654C75.1055 205.431 74.6499 205.136 74.4004 204.724C74.1075 204.246 73.9268 204.206 73.3555 204.598C71.3524 205.972 68.9986 206.594 66.3193 206.22C64.8007 206.006 63.3002 205.716 62.0528 204.938C61.8973 204.84 61.7274 204.753 61.5828 204.646C60.6101 203.925 60.574 203.896 59.6918 204.699C58.9722 205.352 58.0466 205.626 57.027 205.651C55.183 205.696 53.3462 205.592 51.5637 205.155C51.4986 205.138 51.4082 205.15 51.372 205.116C50.3958 204.282 49.6944 204.955 48.964 205.389C46.668 206.744 43.2584 206.578 41.2192 204.992C40.948 204.781 40.8431 204.716 40.4743 204.981C38.4025 206.476 35.9945 207.194 33.1164 206.828C32.2667 206.718 31.3809 206.741 30.5276 206.597C29.4971 206.423 28.4739 206.209 27.8592 205.471C27.5663 205.122 27.3711 205.229 27.1071 205.448C25.2161 207.006 22.837 207.18 20.3205 206.837C18.9501 206.651 17.7642 206.169 17.0844 205.158C16.853 204.812 16.6433 204.829 16.3396 205.068C13.9351 206.975 10.898 206.792 7.96201 206.392C5.96615 206.118 4.6645 205.527 4.35717 203.53C4.30293 203.17 4.02091 203.105 3.71357 203.029C1.08135 202.39 -0.437246 199.072 0.651078 197.405C0.972875 196.912 1.36699 196.458 1.83341 196.053C2.14074 195.783 2.22029 195.597 1.95634 195.247C1.21874 194.281 0.690851 193.245 0.318434 192.152C-0.397473 190.065 -0.00336268 189.294 2.50231 188.429C3.29415 188.156 3.27246 187.995 2.86027 187.443C1.54054 185.664 1.1862 183.715 1.58031 181.69C1.74663 180.85 2.55293 180.374 3.4894 179.913ZM219.878 91.004C219.874 90.9195 219.871 90.8378 219.715 90.8997C219.502 90.8293 219.289 90.7561 219.075 90.6857C219.068 90.6012 219.061 90.5196 218.909 90.5843C218.844 90.5759 218.771 90.5787 218.714 90.5562C215.535 89.3846 212.328 88.2749 208.839 87.7708C208.698 87.6835 208.55 87.6835 208.402 87.7567C208.004 87.7089 207.61 87.6469 207.212 87.6187C206.637 87.5765 206.37 87.3343 206.373 86.9006C206.391 85.1319 206.471 83.3661 206.767 81.6087C207.067 79.8231 207.389 78.0404 207.006 76.2323C206.482 73.7455 206.095 71.2362 205.115 68.8198C205.184 68.6902 205.205 68.5691 205.003 68.4931C204.923 68.2847 204.844 68.0762 204.768 67.8678C204.822 67.8425 204.876 67.82 204.934 67.7946C204.88 67.7721 204.822 67.7495 204.768 67.727C204.743 67.6707 204.717 67.6172 204.692 67.5609C204.746 67.3355 204.779 67.1131 204.493 66.9553C204.464 66.8033 204.457 66.6455 204.406 66.4991C203.332 63.3814 202.154 60.2919 200.491 57.3291C200.657 57.0447 200.241 56.994 200.151 56.8109C200.089 56.2449 199.677 55.783 199.319 55.3324C197.757 53.3694 196.054 51.4684 194.152 49.7025C193.183 48.8041 192.315 47.7931 191.017 47.12C191.028 46.9144 190.913 46.7961 190.638 46.7904C190.529 46.6355 190.464 46.444 190.305 46.3286C188.128 44.7064 185.804 43.2165 183.338 41.8675C182.69 41.5127 182.094 41.0705 181.277 40.9438C181.19 40.741 181.042 40.6142 180.738 40.6931C180.593 40.6311 180.445 40.5692 180.301 40.5072C180.308 40.4143 180.279 40.358 180.141 40.403C179.809 40.2791 179.476 40.1552 179.14 40.0313C178.901 39.9918 179.053 39.3751 178.518 39.7778C176.063 38.7358 173.63 37.6712 171.283 36.4799C169.739 35.6969 168.148 34.9675 166.575 34.2127C166.579 34.1198 166.55 34.0607 166.409 34.1114C166.337 34.0945 166.261 34.0776 166.188 34.0607C166.181 33.9705 166.145 33.9058 166.004 33.9452C165.357 33.6326 164.749 33.258 164.059 33.0214C162.913 32.63 161.889 32.1033 160.866 31.5485C159.919 31.0359 158.899 30.5966 157.912 30.1262C157.901 30.0333 157.858 29.9742 157.72 30.0023C156.3 29.118 154.86 28.2506 153.458 27.3493C151.335 25.9834 148.952 24.9076 146.74 23.6402C146.707 23.353 146.581 23.2065 146.204 23.4149C144.057 22.2687 141.999 21.0323 140.069 19.6664C137.845 18.0893 135.618 16.5149 133.618 14.7632C132.407 13.7014 131.127 12.6876 130.057 11.516C128.911 10.2571 127.996 8.90241 126.955 7.60127C126.795 7.29147 126.799 6.9338 126.492 6.66625C126.325 5.98188 126.17 5.29751 125.993 4.61596C125.751 3.68094 125.649 2.72339 125.266 1.8109C125.309 1.53209 125.172 1.25327 125.346 0.96882C125.429 0.83082 125.259 0.642126 125.045 0.619596C124.749 0.591432 124.568 0.805473 124.655 0.96882C124.81 1.25609 124.687 1.53209 124.731 1.8109C124.326 2.93462 124.131 4.08931 123.899 5.23837C123.465 7.39849 121.882 9.15306 120.493 10.9724C120.077 11.1189 119.868 11.3808 119.817 11.7272C117.037 14.1887 114.231 16.6163 111.078 18.8187C108.739 20.4522 106.352 22.0068 103.796 23.4178C103.42 23.2094 103.29 23.3586 103.261 23.6431C102.632 23.981 101.97 24.2824 101.388 24.6598C100.423 25.2906 99.1426 25.5751 98.3472 26.3805C98.0362 26.3355 97.8554 26.4594 97.7433 26.665C97.1214 27.017 96.4128 27.2789 95.9246 27.7662C95.6426 27.7549 95.5197 27.8676 95.5269 28.0788C94.9882 28.152 94.7025 28.5153 94.3157 28.7491C91.3146 30.5515 88.1184 32.1146 84.8172 33.5593C80.3012 35.5364 76.1106 37.9387 71.4898 39.775C70.98 39.6088 70.7486 39.8454 70.5786 40.1636C70.4774 40.1862 70.3761 40.2115 70.2785 40.234C69.964 40.1636 69.8049 40.2988 69.7 40.5044C69.5554 40.5664 69.4107 40.6255 69.2661 40.6875C68.9624 40.6086 68.8142 40.7353 68.7274 40.9381C68.4128 41.0311 68.0585 41.0789 67.7945 41.2282C65.3033 42.6335 62.7 43.9544 60.5414 45.6583C58.3684 47.3734 56.3219 49.1956 54.3839 51.0882C53.762 51.6965 53.5849 52.5273 52.7062 52.9807C52.4314 53.0399 52.2977 53.1779 52.3049 53.4004C51.2817 54.4452 50.356 55.5351 49.8498 56.8053C49.2677 57.0588 49.2496 57.5375 49.0942 57.96C48.8664 58.4444 48.635 58.9288 48.4072 59.416C47.8106 59.5484 48.1432 59.8976 48.1215 60.1652C47.1164 62.3394 46.1437 64.5248 45.558 66.7976C44.9976 67.0652 44.9976 67.4651 45.1241 67.896C45.0807 68.0931 45.041 68.2903 44.9976 68.4874C44.7951 68.5606 44.8168 68.6818 44.8855 68.8113C44.4263 70.135 43.9201 71.4474 43.6959 72.8189C43.4103 74.551 42.7956 76.252 42.8282 78.0122C42.8788 80.8539 43.7465 83.6477 43.62 86.5063C43.5875 87.1963 43.5007 87.6328 42.4883 87.6441C42.1918 87.6469 41.8953 87.7145 41.5988 87.7511C41.447 87.6779 41.3023 87.6779 41.1577 87.7652C37.7553 88.244 34.6458 89.3649 31.5038 90.4182C31.2001 90.3562 31.041 90.4886 30.9217 90.6801C30.8457 90.7026 30.7734 90.728 30.6975 90.7505C30.0937 90.7223 29.7719 91.1053 29.3308 91.3166L29.3055 91.3673C28.9439 91.4574 28.4847 91.4095 28.3111 91.7756C26.8359 92.5895 25.3065 93.3528 23.8964 94.2315C22.0126 95.4087 20.4651 96.8647 18.8416 98.2476C17.6702 99.2473 16.4264 100.208 15.5514 101.399C15.2549 101.458 15.1609 101.627 15.1572 101.844C14.8788 101.943 14.8427 102.165 14.7342 102.348C13.7652 104.032 12.478 105.593 11.5958 107.313C11.0281 108.42 10.3375 109.493 10.2652 110.715C9.81686 110.884 9.89641 111.172 9.99042 111.462C9.79156 112.335 9.59631 113.208 9.39744 114.081C9.23474 114.174 9.23474 114.292 9.31428 114.422C8.89486 116.396 8.52968 118.379 8.03071 120.342C7.87524 120.956 8.19703 121.66 7.71976 122.158C7.11233 122.792 6.98216 123.487 6.85923 124.203C6.7146 125.051 6.56274 125.907 6.56636 126.76C6.57359 128.148 6.18309 129.528 6.41811 130.923C6.03846 131.759 6.28071 132.61 6.3241 133.454C6.11801 135.02 6.19394 136.592 6.22648 138.161C5.99146 138.284 6.0927 138.389 6.25541 138.49C6.25541 138.591 6.25541 138.696 6.25179 138.797C6.03846 138.896 6.05293 139.008 6.22286 139.129C6.05293 139.49 6.15417 139.848 6.22648 140.205C6.024 140.312 5.99146 140.428 6.20479 140.552C6.20479 141.326 6.19394 142.101 6.20479 142.875C6.22648 144.821 6.08547 146.767 6.30964 148.708C6.24817 149.293 6.09631 149.885 6.40726 150.457C6.30603 150.704 6.32049 150.952 6.40003 151.203C6.34941 151.352 6.2554 151.499 6.25902 151.648C6.27348 154.025 6.29879 156.399 6.3241 158.776C6.30241 158.903 6.25902 159.032 6.25541 159.159C6.21202 163.291 6.15055 167.425 6.13609 171.557C6.12162 175.57 6.15778 179.583 6.17224 183.596C5.89745 183.878 6.08547 184.162 6.16863 184.444C6.16501 185.052 6.16501 185.664 6.1614 186.272C6.04208 186.486 6.05293 186.706 6.11439 186.928C6.04569 188.333 5.977 189.742 5.90468 191.147C5.79621 191.26 5.82152 191.372 5.89745 191.488C5.85045 192.527 5.79983 193.566 5.75282 194.605C5.86491 194.87 5.21047 195.042 5.60458 195.34C5.78898 196.09 5.55758 196.844 5.62266 197.591C5.76367 199.185 5.17431 200.77 5.52503 202.367C5.57927 202.674 5.73836 202.801 6.10716 202.576C6.30603 202.654 6.50489 202.733 6.70737 202.809C6.92069 203.012 6.03846 203.561 7.07255 203.502C8.35251 203.626 9.60715 203.319 10.8835 203.367C11.0426 203.471 11.2017 203.449 11.3608 203.364C14.2099 203.336 17.0591 203.344 19.901 203.266C21.745 203.215 23.589 203.297 25.4367 203.195C30.1841 202.936 34.9459 203.04 39.697 202.888C42.4377 202.801 45.1747 202.866 47.9118 202.936C51.6758 203.032 55.3891 202.457 59.1422 202.412C59.3049 202.5 59.4567 202.48 59.605 202.392C63.7775 202.66 67.95 202.573 72.1225 202.426C72.4588 202.73 72.7806 202.806 73.0626 202.384C75.9624 202.457 78.8658 202.573 81.7656 202.598C85.6488 202.632 89.5212 202.229 93.4081 202.432C95.7113 202.553 98.0217 202.257 100.329 202.44C100.56 202.474 100.788 202.5 100.972 202.342C102.99 202.342 105.007 202.345 107.025 202.345C107.162 202.449 107.3 202.432 107.433 202.342C108.97 202.533 110.521 202.423 112.065 202.519C112.228 202.767 112.369 202.77 112.481 202.497C115.847 202.336 119.213 202.176 122.576 202.015C122.815 202.147 123.017 202.06 123.22 201.956C124.405 202.069 125.591 202.069 126.777 201.956C126.98 202.06 127.182 202.147 127.421 202.015C128.057 202.026 128.697 201.995 129.323 202.057C132.042 202.333 134.786 202.325 137.516 202.497C137.632 202.773 137.769 202.767 137.932 202.519C139.472 202.423 141.027 202.533 142.56 202.342C142.694 202.435 142.831 202.449 142.968 202.345C144.986 202.345 147.004 202.345 149.021 202.342C149.206 202.5 149.437 202.471 149.668 202.44C150.001 202.415 150.334 202.35 150.663 202.367C155.128 202.57 159.601 202.24 164.062 202.494C166.792 202.649 169.522 202.587 172.256 202.542C173.991 202.514 175.727 202.359 177.462 202.505C177.491 202.545 177.516 202.587 177.545 202.626C177.596 202.581 177.647 202.539 177.697 202.494C178.366 202.491 179.035 202.463 179.704 202.488C183.269 202.623 186.834 202.584 190.396 202.392C190.544 202.48 190.699 202.502 190.858 202.412C191.965 202.466 193.068 202.545 194.174 202.57C196.752 202.629 199.297 203.068 201.89 202.942C203.094 202.883 204.298 202.88 205.505 202.852C208.582 202.781 211.656 202.995 214.729 202.978C219.693 202.95 224.643 203.268 229.604 203.274C232.62 203.277 235.635 203.33 238.651 203.364C238.882 203.477 239.103 203.463 239.316 203.333C240.307 203.387 241.297 203.443 242.288 203.496C243.434 203.632 243.467 203.609 243.293 202.809C243.496 202.73 243.694 202.654 243.897 202.576C244.707 202.784 244.551 202.376 244.479 202.021C245.17 201.503 244.468 201.001 244.45 200.491C244.389 198.757 244.353 197.019 244.302 195.281C244.309 195.104 244.4 194.907 244.128 194.786C244.4 193.684 244.128 192.583 244.099 191.482C244.175 191.367 244.197 191.251 244.092 191.138C244.023 189.733 243.955 188.328 243.882 186.92C243.944 186.697 243.955 186.475 243.835 186.261C243.835 185.652 243.832 185.041 243.832 184.433C243.908 184.148 244.103 183.867 243.825 183.585C243.828 181.186 243.843 178.786 243.835 176.387C243.825 172.362 243.814 168.337 243.774 164.313C243.756 162.465 243.944 160.615 243.669 158.77C243.691 156.422 243.716 154.07 243.738 151.721C243.738 151.538 243.749 151.355 243.59 151.2C243.651 150.952 243.68 150.702 243.582 150.454C243.897 149.879 243.741 149.291 243.68 148.705C243.727 148.426 243.81 148.15 243.81 147.871C243.81 145.429 243.796 142.988 243.785 140.543C243.998 140.419 243.966 140.304 243.76 140.197C243.832 139.839 243.933 139.479 243.763 139.121C243.933 139 243.951 138.89 243.734 138.789C243.76 138.532 243.817 138.287 243.81 138.023C243.745 134.944 243.796 131.863 243.521 128.791C243.398 127.425 243.333 126.053 243.239 124.687C243.141 123.259 242.122 122.079 241.973 120.66C241.753 118.565 241.124 116.495 240.668 114.416C240.744 114.287 240.744 114.168 240.585 114.072C240.35 113.078 240.115 112.081 239.876 111.087C239.931 111.07 239.981 111.053 240.035 111.034C239.985 111.017 239.934 111 239.884 110.98C237.128 102.666 230.692 96.4704 221.668 91.7616C221.682 91.6686 221.653 91.6151 221.516 91.663C221.443 91.6461 221.371 91.6264 221.295 91.6095C221.281 91.5222 221.248 91.4574 221.111 91.4968C220.898 91.432 220.684 91.3644 220.471 91.2997C220.362 91.0941 220.171 90.9842 219.878 91.0096V91.004ZM5.04776 180.459C4.28485 180.769 3.48217 180.87 2.96151 181.416C2.33599 182.073 2.96151 182.974 2.24198 183.61C2.21667 183.633 2.29622 183.771 2.36853 183.808C2.70841 183.974 2.67225 184.261 2.7518 184.503C3.06998 185.503 3.36646 186.486 4.11491 187.384C5.02968 188.48 4.83444 188.714 3.21822 189.206C2.5674 189.406 1.9455 189.668 1.30913 189.899C0.936718 190.034 0.802937 190.248 1.04157 190.522C1.26575 190.781 1.22597 191.071 1.28021 191.352C1.52246 192.609 2.06481 193.805 3.07721 194.777C3.96305 195.628 4.05345 195.673 3.0519 196.402C0.640231 198.162 1.28744 200.013 3.07721 201.779C3.20737 201.908 3.45324 201.984 3.66295 202.049C4.20169 202.218 4.49456 202.083 4.24869 201.635C4.03175 201.241 4.12938 200.874 4.16192 200.483C4.20892 199.908 4.55964 199.399 4.56326 198.802C4.57049 197.517 4.54518 196.23 4.64281 194.94C4.84528 192.223 4.9646 189.502 5.04415 186.779C5.09838 184.712 5.04776 182.642 5.04776 180.459ZM244.902 186.97C244.718 187.646 245.105 188.716 245.108 189.798C245.115 191.327 245.235 192.87 245.35 194.408C245.499 196.402 245.22 198.416 245.828 200.39C245.94 200.759 246.077 201.156 245.806 201.542C245.698 201.7 245.571 201.908 245.777 202.049C246.016 202.212 246.309 202.057 246.5 201.959C247.881 201.266 249.169 199.047 248.218 197.706C247.86 197.199 247.455 196.675 246.815 196.292C245.933 195.763 245.976 195.425 246.808 194.893C247.01 194.763 247.184 194.594 247.321 194.419C248.276 193.175 248.605 191.764 249.064 190.389C249.154 190.119 248.93 189.97 248.615 189.865C247.816 189.598 247.025 189.316 246.236 189.032C245.538 188.778 245.126 188.536 245.607 187.801C246.663 186.179 247.784 184.582 247.429 182.594C247.249 181.583 246.775 181.033 245.625 180.676C245.036 180.493 244.884 180.546 244.891 181.045C244.917 182.887 244.902 184.726 244.902 186.97ZM112.217 16.9515C112.17 16.8867 112.127 16.8219 112.08 16.7543C111.056 16.7318 110.04 16.7881 109.057 17.0613C106.266 17.8414 103.359 18.5061 102.653 21.2379C102.578 21.5393 102.194 21.7477 102.303 22.1476C102.404 22.5222 102.01 22.6714 101.525 22.6686C100.585 22.6573 99.6307 22.7531 98.781 23.0347C96.5212 23.7923 94.6808 24.978 93.4804 26.6734C93.2852 26.9466 93.4226 27.4141 93.7769 27.7014C94.1566 28.0112 94.3627 27.6422 94.5796 27.5127C95.2955 27.0874 95.9572 26.6115 96.6767 26.1947C100.329 24.0627 104.385 22.3729 107.849 20.0353C109.332 19.0384 110.76 17.9851 112.217 16.9515ZM137.679 16.774C138.037 17.0867 138.21 17.2838 138.438 17.4302C140.813 18.9567 142.903 20.7282 145.525 22.049C148.938 23.7698 152.337 25.5244 155.472 27.5578C156.079 27.952 156.184 27.8704 156.321 27.2705C156.459 26.665 156.162 26.251 155.819 25.7976C155.439 25.2962 154.741 25.0484 154.264 24.6344C152.684 23.2685 150.699 22.694 148.396 22.6686C148.063 22.6658 147.694 22.5757 147.745 22.3053C147.853 21.7392 147.365 21.3478 147.192 20.8718C146.776 19.7256 146.016 18.8131 144.563 18.2498C142.455 17.4302 140.358 16.6642 137.679 16.774ZM244.823 164.037C246.352 163.581 246.724 162.772 246.753 161.787C246.761 161.477 246.862 161.164 246.949 160.86C247.401 159.283 247.108 158.655 245.408 157.782C244.786 157.461 244.714 157.033 245.097 156.653C246.627 155.146 246.996 153.391 247.111 151.547C247.205 150.045 246.341 148.71 244.823 148.226C244.823 153.473 244.823 158.723 244.823 164.037ZM5.13816 153.943C5.18154 153.943 5.22855 153.943 5.27194 153.943C5.27194 153.681 5.27194 153.419 5.27194 153.157C5.27917 151.645 5.29363 150.13 5.29363 148.618C5.29363 148.378 5.32256 147.947 4.81274 148.302C4.07153 148.818 3.20376 149.316 3.06998 150.161C2.71202 152.36 2.94704 154.481 4.63919 156.368C5.38041 157.193 5.34063 157.466 4.20169 157.928C3.27969 158.3 2.92897 158.841 2.96512 159.643C2.99766 160.376 3.21822 161.088 3.25076 161.809C3.29053 162.671 3.67741 163.353 4.53795 163.902C4.98991 164.192 5.13092 164.04 5.149 163.705C5.17793 163.215 5.13454 162.722 5.13454 162.229C5.13815 159.469 5.13816 156.706 5.13816 153.943ZM215.89 203.956C215.89 203.922 215.89 203.888 215.89 203.857C214.183 203.857 212.473 203.86 210.766 203.854C210.314 203.854 209.953 203.902 210.394 204.31C211.515 205.364 213.142 205.789 214.722 206.059C215.846 206.251 217.108 205.944 218.309 205.862C219.155 205.803 219.918 205.533 220.706 205.31C221.396 205.116 221.454 204.603 221.454 204.215C221.458 203.758 220.822 203.975 220.489 203.97C218.952 203.936 217.419 203.956 215.89 203.956ZM34.2843 203.846C34.2843 203.885 34.2843 203.922 34.2843 203.961C32.5524 203.961 30.8168 203.958 29.0849 203.964C28.8318 203.964 28.4413 203.922 28.5389 204.243C28.6691 204.677 28.6836 205.172 29.4392 205.352C31.8979 205.944 34.3494 206.445 36.8948 205.659C37.8313 205.369 38.7497 205.054 39.4583 204.474C39.6283 204.336 39.9211 204.172 39.7584 203.944C39.6319 203.767 39.3246 203.857 39.1076 203.854C37.4986 203.84 35.8896 203.846 34.2843 203.846ZM95.0316 203.443C95.1509 203.984 95.2557 204.479 95.7258 204.848C96.6514 205.575 100.101 205.933 101.251 205.423C102.089 205.048 102.907 204.643 103.727 204.243C103.984 204.119 104.212 203.978 104.36 203.756C104.581 203.426 104.505 203.282 104.002 203.28C101.019 203.263 98.0362 203.274 95.0316 203.443ZM147.86 203.277C147.325 203.277 146.79 203.266 146.255 203.282C146.009 203.291 145.655 203.175 145.546 203.429C145.463 203.626 145.637 203.863 145.85 203.97C147.184 204.646 148.425 205.49 150.052 205.713C151.133 205.859 152.141 205.437 153.183 205.282C154.148 205.141 154.647 204.631 154.875 203.905C154.987 203.544 154.958 203.418 154.412 203.398C152.228 203.328 150.048 203.26 147.86 203.277ZM187.919 203.508C187.662 203.491 187.503 203.468 187.351 203.474C184.119 203.578 180.893 203.401 177.665 203.358C177.426 203.356 177.158 203.33 177.09 203.556C177.032 203.742 177.18 203.908 177.357 204.032C177.889 204.406 178.605 204.527 179.194 204.815C181.139 205.755 183.186 205.412 185.182 205.062C186.248 204.874 187.351 204.533 187.919 203.508ZM62.1974 203.46C62.1685 203.525 62.1396 203.589 62.107 203.654C62.5156 204.012 62.8663 204.603 63.3472 204.677C64.2837 204.82 65.1225 205.155 66.0662 205.29C68.4671 205.634 70.5425 205.152 72.4913 204.119C72.7589 203.975 72.9903 203.792 72.9144 203.556C72.8167 203.246 72.4226 203.358 72.1442 203.361C71.1463 203.373 70.1447 203.401 69.1468 203.42C66.8328 203.463 64.5187 203.578 62.1974 203.46ZM84.5497 203.615C83.9675 203.536 83.4794 203.437 82.8901 203.488C80.9557 203.66 79.014 203.454 77.0724 203.466C76.3673 203.468 75.2067 203.159 75.0512 203.646C74.8704 204.212 75.7852 204.71 76.5481 205.051C77.9727 205.685 79.5058 205.735 81.0316 205.516C82.4959 205.302 83.8301 204.823 84.5497 203.615ZM165.339 203.488C166.575 205.229 168.448 205.583 170.43 205.614C172.143 205.64 173.76 205.288 174.812 204.082C174.953 203.922 175.195 203.708 174.996 203.522C174.888 203.42 174.57 203.432 174.345 203.435C173.456 203.443 172.57 203.482 171.681 203.488C169.631 203.494 167.577 203.488 165.339 203.488ZM109.342 205.513C111.458 205.648 112.376 205.268 113.215 203.916C113.305 203.772 113.616 203.587 113.302 203.466C113.023 203.358 112.806 202.978 112.452 203.17C111.646 203.612 110.782 203.418 109.925 203.401C108.627 203.375 107.329 203.344 106.031 203.322C105.781 203.316 105.474 203.232 105.557 203.612C105.828 204.846 106.605 205.412 108.232 205.51C108.605 205.533 108.974 205.513 109.342 205.513ZM140.756 205.519C140.828 205.519 141.03 205.519 141.229 205.519C143.265 205.502 143.771 205.203 144.397 203.716C144.534 203.384 144.447 203.299 144.013 203.316C143.052 203.358 142.083 203.415 141.121 203.389C139.946 203.356 138.727 203.722 137.596 203.181C137.191 202.987 137.021 203.358 136.735 203.449C136.373 203.564 136.695 203.747 136.768 203.891C137.324 204.986 138.633 205.797 140.756 205.519ZM118.754 11.2005C115.518 10.7499 111.83 13.386 112.445 16.7853C113.32 16.2136 114.003 15.5574 114.694 14.9153C115.33 14.3267 116.248 13.9859 116.787 13.2902C117.344 12.5721 118.4 12.1271 118.754 11.2005ZM137.603 16.8191C137.722 15.2222 137.375 13.8929 136.044 12.7213C134.938 11.7469 133.206 10.8992 131.236 11.2766C131.912 12.3721 133.022 13.2339 134.099 14.0253C135.292 14.8984 136.229 15.9601 137.603 16.8191ZM5.86491 124.484C4.58495 124.676 4.16553 125.386 3.78589 126.157C3.04105 127.675 3.40624 129.233 3.53279 130.77C3.57618 131.322 4.11853 131.787 4.69704 132.15C4.83805 132.241 5.01522 132.367 5.23216 132.249C5.4021 132.153 5.47442 132.032 5.44911 131.852C5.27194 130.43 5.63712 129.022 5.66966 127.602C5.69497 126.571 5.79621 125.546 5.86491 124.484ZM4.99714 171.235C3.81481 172.213 2.62163 173.117 2.89642 174.505C3.06998 175.384 3.10252 176.265 3.24353 177.141C3.31946 177.606 3.35562 178.082 3.50386 178.533C3.66657 179.025 4.19084 179.358 4.8019 179.332C5.24663 179.316 5.10561 178.831 5.11285 178.583C5.15262 176.874 5.15262 175.161 5.10923 173.452C5.09115 172.748 5.31532 172.024 4.99714 171.235ZM244.985 171.25C244.913 171.52 244.826 171.695 244.83 171.869C244.851 174.074 244.88 176.28 244.92 178.485C244.924 178.744 244.736 179.172 245.181 179.211C245.694 179.256 246.244 179.07 246.486 178.623C246.547 178.507 246.533 178.366 246.569 178.24C246.844 177.319 246.638 176.339 246.945 175.452C247.556 173.688 246.652 172.438 244.985 171.25ZM244.165 124.515C244.165 124.732 244.157 124.935 244.165 125.138C244.262 127.382 244.66 129.619 244.544 131.869C244.533 132.052 244.613 132.176 244.79 132.252C245.032 132.353 245.184 132.272 245.361 132.097C245.98 131.5 246.497 130.883 246.529 130.078C246.558 129.357 246.659 128.639 246.703 127.918C246.797 126.422 245.694 124.935 244.165 124.515ZM223.013 204.071C224.448 205.797 226.448 206.2 228.758 206.031C229.926 205.947 230.985 205.69 231.77 204.944C231.947 204.775 232.16 204.609 232.092 204.406C232.001 204.141 231.636 204.234 231.397 204.226C228.65 204.139 225.902 204.327 223.013 204.071ZM26.9372 204.082C24.0699 204.324 21.3039 204.136 18.5452 204.229C18.3354 204.237 18.0245 204.161 17.9341 204.384C17.8473 204.595 18.0606 204.75 18.2161 204.924C19.6262 206.516 25.1872 206.651 26.9372 204.082ZM93.1152 28.4815C91.6762 28.4027 90.5626 28.4449 89.4779 28.7406C87.171 29.3687 85.8477 30.881 84.3544 32.23C84.1953 32.3737 84.2568 32.5962 84.4773 32.7032C84.669 32.7933 84.8787 32.8581 85.0269 32.5849C85.1896 32.2836 85.6054 32.1512 85.967 32.0188C88.4474 31.1091 90.6204 29.8221 93.1152 28.4815ZM157.001 28.5012C158.23 29.2447 159.384 29.8221 160.497 30.4445C161.976 31.2725 163.817 31.6471 165.089 32.7201C165.165 32.7849 165.426 32.782 165.556 32.7342C165.863 32.6243 165.614 32.4863 165.534 32.368C164.753 31.1965 163.618 30.2783 162.251 29.5038C160.718 28.6364 159.044 28.3125 157.001 28.5012ZM156.321 203.44C156.437 203.868 156.632 204.212 157.149 204.386C158.87 204.967 160.638 205.181 162.511 204.891C163.553 204.73 164.084 204.31 164.146 203.491C161.528 203.373 158.943 203.195 156.321 203.44ZM93.6721 203.423C91.405 203.263 89.1488 203.285 86.8962 203.468C86.5238 203.499 85.8152 203.305 85.8441 203.598C85.8875 204.02 86.0755 204.589 86.842 204.73C87.0373 204.767 87.2253 204.826 87.4169 204.862C88.7077 205.11 90.0455 205.144 91.2676 204.823C92.1824 204.586 93.513 204.595 93.6721 203.423ZM122.305 203.384C122.225 203.285 122.149 203.187 122.07 203.091C119.777 202.99 117.499 203.35 115.207 203.282C115.001 203.277 114.893 203.378 114.929 203.53C115.044 203.989 115.066 204.629 115.684 204.733C117.283 205.003 118.957 205.474 120.501 204.584C121.137 204.217 121.705 203.787 122.305 203.384ZM127.725 203.125C128.752 203.956 129.449 204.865 130.899 205.06C131.781 205.178 132.617 204.879 133.477 204.896C134.54 204.916 134.848 204.401 135.043 203.742C135.137 203.418 135.072 203.254 134.569 203.274C133.969 203.297 133.365 203.257 132.765 203.24C131.152 203.19 129.543 202.992 127.725 203.125ZM5.72028 204.539C8.37782 206.307 13.2952 206.172 15.5477 204.341C12.2755 204.288 9.10096 204.299 5.72028 204.539ZM244.186 204.536C240.903 204.308 237.721 204.26 234.366 204.361C237.136 206.175 242.067 206.254 244.186 204.536ZM207.722 86.6893C208.854 86.8527 209.88 86.9625 210.882 87.1569C211.913 87.3568 212.914 87.6384 213.93 87.8835C214.133 86.9851 213.189 85.7064 212.043 85.2981C210.802 84.8559 209.02 85.4023 207.722 86.6893ZM5.15985 146.809C5.11646 145.697 5.52142 144.621 5.3334 143.495C5.20324 142.706 5.19962 141.895 5.30448 141.09C5.3334 140.867 5.48888 140.456 4.94652 140.428C4.2957 140.394 3.29054 141.149 3.26884 141.664C3.19291 143.523 3.79673 145.241 5.15985 146.809ZM36.0957 87.9257C38.1169 87.2667 40.1634 86.9541 42.2966 86.7006C41.0384 85.4389 39.2992 84.8306 38.2073 85.2051C36.9418 85.6417 35.8752 86.9766 36.0957 87.9257ZM239.576 106.967C240.722 105.733 240.542 104.396 239.648 103.275C239.056 102.531 238.072 101.681 236.431 102.021C237.486 103.68 238.517 105.3 239.576 106.967ZM244.739 146.795C245.962 145.421 246.732 143.973 246.732 142.343C246.732 141.65 246.623 140.985 245.716 140.614C244.884 140.273 244.577 140.374 244.714 141.084C244.942 142.281 244.436 143.455 244.714 144.655C244.87 145.345 244.739 146.08 244.739 146.795ZM13.6133 101.971C12.1851 101.979 10.6774 102.557 10.2688 103.32C9.62162 104.528 9.29621 105.764 10.4424 106.956C11.4945 105.3 12.525 103.677 13.6133 101.971ZM218.001 87.2132C216.815 87.1794 216.031 87.2751 215.481 87.8975C215.246 88.1651 215.138 88.3172 215.608 88.4749C217.177 89.0015 218.808 89.4268 220.232 90.19C220.474 90.3196 220.749 90.3224 220.793 90.0013C220.988 88.5312 219.549 87.2385 218.001 87.2132ZM29.1825 90.2633C30.0177 90.0915 30.5963 89.7845 31.2182 89.5423C32.2233 89.148 33.2827 88.8382 34.3277 88.5059C34.7832 88.3594 34.823 88.2214 34.5193 87.8863C33.7853 87.0724 32.7187 87.1681 31.7063 87.2244C30.8457 87.2695 30.1371 87.5596 29.808 88.2918C29.5332 88.903 29.3669 89.5198 29.1825 90.2633ZM7.86801 115.438C6.86646 115.63 6.024 115.923 5.71305 116.641C5.30086 117.596 4.85252 118.567 5.00076 119.607C5.13092 120.497 5.24301 121.406 6.2084 122.062C6.29156 121.992 6.35665 121.961 6.37472 121.916C6.42173 121.82 6.45788 121.716 6.47235 121.615C6.80861 119.562 6.42896 117.415 7.86801 115.438ZM242.017 115.464C242.57 116.1 243.022 116.618 243.069 117.311C243.159 118.717 243.365 120.116 243.525 121.516C243.546 121.696 243.517 121.947 243.749 122.003C244.096 122.088 244.146 121.786 244.273 121.626C245.119 120.539 245.199 119.331 244.866 118.156C244.541 116.996 244.28 115.678 242.017 115.464ZM241.814 114.461C243.749 112.307 242.769 108.626 240.231 108.017C240.549 110.155 241.63 112.157 241.814 114.461ZM49.2026 203.939C46.9103 203.843 44.6541 203.882 42.416 203.674C42.2388 203.657 41.9749 203.809 41.8592 203.941C41.7398 204.077 41.9315 204.232 42.0616 204.347C42.4304 204.688 42.8354 204.972 43.4284 205.091C45.5869 205.519 47.6262 205.597 49.2026 203.939ZM200.848 203.767C200.838 203.865 200.83 203.961 200.82 204.06C201.105 204.24 201.387 204.423 201.673 204.6C203.069 205.474 205.614 205.643 207.143 204.922C207.61 204.702 208.272 204.389 208.116 203.939C207.95 203.451 207.263 203.837 206.811 203.775C206.778 203.77 206.746 203.764 206.71 203.764C204.761 203.767 202.805 203.767 200.848 203.767ZM44.3648 66.7019C44.6758 65.826 44.9397 65.0233 45.2471 64.2291C45.5544 63.4349 45.916 62.6548 46.2161 61.8578C46.292 61.6522 46.5596 61.379 46.2884 61.2129C46.0027 61.0382 45.6412 61.241 45.3628 61.348C43.6164 62.0155 42.434 65.0036 44.3648 66.7019ZM205.675 66.7188C206.561 65.9302 206.641 65.0881 206.673 64.2545C206.724 63.0604 205.581 61.6916 204.258 61.2776C204.077 61.2213 203.889 61.0918 203.701 61.2129C203.502 61.3424 203.694 61.5029 203.723 61.6466C203.839 62.2436 204.179 62.7872 204.406 63.3561C204.84 64.4432 205.234 65.5415 205.675 66.7188ZM8.16088 114.394C8.56583 112.188 9.07203 110.107 9.82771 107.989C7.21356 108.727 6.28433 112.433 8.16088 114.394ZM74.9645 37.3248C77.4593 36.094 79.8493 34.9168 82.3405 33.6889C80.0409 32.9257 75.1633 35.3787 74.9645 37.3248ZM175.098 37.3191C175.108 36.8235 174.935 36.432 174.62 36.1532C173.076 34.7901 171.218 33.8044 168.879 33.4636C168.531 33.4129 168.007 33.3284 167.895 33.6382C167.797 33.9086 168.296 34.0522 168.593 34.193C170.715 35.2182 172.841 36.2349 175.098 37.3191ZM4.81274 170.424C4.93929 170.407 5.06223 170.391 5.18878 170.374C5.18878 168.58 5.19601 166.786 5.17793 164.994C5.17793 164.826 5.25747 164.516 4.81636 164.578C4.05345 164.682 3.07721 165.563 3.04828 166.18C2.96512 167.774 4.1113 169.039 4.81274 170.424ZM190.518 203.35C191.086 203.885 191.487 204.527 192.344 204.66C194.29 204.961 196.184 204.648 198.057 204.248C198.249 204.209 198.473 204.122 198.44 203.941C198.404 203.747 198.137 203.772 197.952 203.756C196.954 203.665 195.96 203.561 194.959 203.511C193.483 203.435 192.001 203.401 190.518 203.35ZM59.5833 203.353C56.9258 203.392 54.4056 203.575 51.8855 203.775C51.7698 203.784 51.5926 203.781 51.5709 203.919C51.5384 204.119 51.7445 204.201 51.9289 204.237C52.8364 204.409 53.7403 204.631 54.6623 204.71C56.4955 204.862 58.354 204.961 59.5833 203.353ZM244.826 170.255C244.938 170.267 245.054 170.281 245.166 170.292C245.484 169.574 246.048 168.96 246.482 168.292C247.426 166.834 247.032 165.676 245.412 164.761C244.92 164.482 244.837 164.595 244.833 164.952C244.823 166.721 244.826 168.487 244.826 170.255ZM183.247 40.7015C183.475 40.3861 183.273 40.1524 183.095 39.944C182.065 38.7329 180.532 38.0683 178.804 37.6627C178.352 37.5557 177.806 37.5416 177.321 37.6965C177.173 37.7416 176.981 37.8148 176.931 37.9134C176.826 38.1077 177.09 38.1669 177.249 38.2457C179.158 39.1948 181.226 39.9073 183.247 40.7015ZM66.6411 40.7945C68.7057 39.9383 70.6148 39.1554 72.5058 38.3527C72.7372 38.2542 73.2145 38.2091 73.0698 37.9106C72.9577 37.674 72.5456 37.6289 72.1984 37.6149C70.528 37.5416 69.2697 38.2485 68.044 38.9751C67.3643 39.3807 66.7279 39.8538 66.6411 40.7945ZM119.391 8.83482C119.329 9.22347 119.488 9.5727 119.589 9.92755C119.626 10.0571 119.64 10.1951 119.871 10.1838C120.038 10.1754 120.226 10.1613 120.294 10.0205C120.924 8.71372 122.229 7.65196 122.536 6.22972C122.576 6.05229 122.938 5.8467 122.561 5.69462C122.305 5.59041 122.008 5.59041 121.715 5.74531C120.291 6.49164 119.571 7.54494 119.391 8.83482ZM244.7 134.066C244.7 135.792 244.696 137.493 244.707 139.191C244.707 139.36 244.877 139.664 245.101 139.434C245.73 138.789 246.735 138.282 246.645 137.324C246.554 136.327 246.287 135.37 245.571 134.508C245.376 134.277 245.202 134.105 244.7 134.066ZM5.25024 133.998C4.57049 134.33 4.57049 134.33 4.14745 134.91C3.12783 136.313 3.19291 137.769 4.33186 138.873C4.56326 139.098 4.70427 139.56 5.11646 139.439C5.56842 139.304 5.22855 138.876 5.23578 138.583C5.2647 137.088 5.25024 135.595 5.25024 133.998ZM130.657 8.71653C130.379 7.57029 129.833 6.3987 128.122 5.77911C127.898 5.69743 127.674 5.60168 127.472 5.69743C127.124 5.86078 127.439 6.06355 127.486 6.2438C127.815 7.52241 128.795 8.55882 129.594 9.66282C129.724 9.84307 129.612 10.2176 130.068 10.15C130.379 10.105 130.458 9.82335 130.516 9.59805C130.57 9.36992 130.588 9.13617 130.657 8.71653ZM199.033 53.1497C200.603 55.2197 201.915 57.346 202.873 59.616C202.855 58.3824 203.177 57.1855 202.353 55.9689C201.535 54.7691 200.624 53.7552 199.033 53.1497ZM41.8375 80.2371C41.5916 78.5023 41.635 76.8942 42.0182 75.2551C40.5033 75.7817 39.7657 76.5675 39.9392 77.7391C40.0802 78.6853 40.2827 79.702 41.8375 80.2371ZM47.1959 59.83C47.9661 57.2756 49.5389 55.2282 51.2346 53.0004C48.7651 53.7355 47.9914 55.3436 47.167 56.7236C46.7259 57.4643 46.838 58.6162 47.1959 59.83ZM207.65 73.5906C209.241 71.2277 208.546 68.6536 206.127 68.0087C206.634 69.8731 207.136 71.7178 207.65 73.5906ZM43.9129 67.9101C41.3855 68.9972 40.7455 71.5234 42.3654 73.5765C42.8752 71.7178 43.3777 69.8731 43.9129 67.9101ZM207.982 75.2719C208.42 76.897 208.373 78.5164 208.203 80.2625C209.729 79.6175 210.047 78.6093 210.058 77.5982C210.065 76.5618 209.653 75.5846 207.982 75.2719ZM59.3338 45.5766C60.9573 44.0502 62.9097 42.98 64.9164 41.8365C61.9299 41.707 58.9288 43.6981 59.3338 45.5766ZM185.012 41.8422C187.134 42.9067 189.014 44.1065 190.735 45.571C190.974 43.5827 187.984 41.6676 185.012 41.8422ZM57.7935 46.6891C55.3602 46.5539 52.4242 49.3167 53.1076 50.9924C54.6551 49.5702 56.2062 48.1479 57.7935 46.6891ZM196.925 51.0121C197.49 49.1646 194.572 46.4609 192.243 46.7172C193.816 48.162 195.367 49.5814 196.925 51.0121ZM42.3907 83.9688C42.4051 83.966 42.4232 83.966 42.4377 83.9631C42.3075 83.1661 42.1701 82.3719 42.0544 81.5721C42.0182 81.3299 41.9749 81.1665 41.5771 81.2623C40.713 81.4735 39.8886 82.738 40.2972 83.3661C40.5177 83.7097 40.6913 84.0617 40.8901 84.4109C41.1216 84.8137 41.6711 85.1939 42.1846 85.1488C42.6835 85.1038 42.2822 84.5771 42.4015 84.2757C42.4413 84.1856 42.3979 84.073 42.3907 83.9688ZM222.76 89.9985C222.337 89.9478 221.982 90.1478 221.679 90.4604C221.476 90.6688 221.516 90.7223 221.823 90.835C223.099 91.3025 224.166 92.0263 225.33 92.6318C225.508 92.7247 225.649 92.9669 225.909 92.8486C226.133 92.7473 226.097 92.5276 226.072 92.3445C225.923 91.187 224.34 90.0295 222.76 89.9985ZM27.2409 90.0042C25.7404 89.9816 24.088 91.156 23.9398 92.3502C23.9181 92.5332 23.8783 92.7557 24.1061 92.8543C24.3664 92.9698 24.5038 92.7247 24.6846 92.6346C25.7765 92.0882 26.7383 91.3785 27.9423 90.9673C28.557 90.7589 28.51 90.5449 28.0725 90.221C27.8158 90.0295 27.5338 90.0379 27.2409 90.0042ZM207.617 83.6787C207.617 84.1603 207.61 84.4475 207.621 84.7348C207.624 84.8813 207.498 85.07 207.715 85.1601C207.961 85.2615 208.17 85.1178 208.337 84.9967C209.081 84.4504 209.512 83.797 209.613 82.9802C209.707 82.217 209.342 81.7016 208.55 81.3242C208.217 81.1637 208.004 81.1891 207.953 81.5495C207.852 82.324 207.711 83.0957 207.617 83.6787ZM18.5126 97.1745C16.2926 97.0788 14.1557 99.0474 14.68 100.557C15.9672 99.4642 17.0302 98.2785 18.5126 97.1745ZM230.635 95.3524C230.407 94.7975 230.19 94.1216 229.467 93.6457C228.856 93.2429 228.18 93.2824 227.493 93.5077C227.145 93.6231 227.095 93.7978 227.438 93.9498C228.451 94.4004 228.979 95.2538 229.937 95.7495C230.118 95.8424 230.212 96.11 230.494 95.9776C230.718 95.8734 230.609 95.6509 230.635 95.3524ZM21.6836 93.3669C20.4398 93.3809 19.0513 94.8792 19.3876 95.7945C19.5178 96.1466 19.6949 96.0114 19.948 95.8649C20.917 95.3017 21.5317 94.4483 22.5803 93.9498C22.9274 93.7837 22.8261 93.6372 22.5116 93.502C22.2332 93.3809 21.9475 93.3415 21.6836 93.3669ZM235.465 100.684C235.494 98.6587 233.487 96.938 231.604 97.2562C232.992 98.2813 234.055 99.4698 235.465 100.684ZM127.092 5.1229C128.238 4.00482 127.576 1.67853 126.188 1.39409C126.445 2.60229 126.947 3.75698 127.092 5.1229ZM122.822 5.15388C123.187 3.7767 123.509 2.56849 123.849 1.27298C122.366 1.9658 121.849 3.84992 122.822 5.15388ZM5.77452 131.936C5.62627 131.959 5.53588 131.99 5.57565 132.086C5.60458 132.156 5.64435 132.238 5.71305 132.28C5.7926 132.328 5.9083 132.308 5.89384 132.207C5.87576 132.111 5.81429 132.021 5.77452 131.936ZM149.929 203.077C149.95 203.091 149.968 203.108 149.99 203.122C150.008 203.105 150.026 203.088 150.044 203.074C150.015 203.06 149.987 203.043 149.958 203.029C149.947 203.046 149.94 203.06 149.929 203.077ZM100.007 203.018C99.9887 203.035 99.9561 203.052 99.9561 203.066C99.9561 203.082 99.9923 203.097 100.01 203.111C100.028 203.085 100.047 203.063 100.065 203.037C100.047 203.032 100.028 203.026 100.007 203.018Z" fill="#EF2380"/>
<path d="M116.888 200.362C111.194 200.418 105.499 200.475 99.8043 200.528C99.6488 200.331 99.4897 200.235 99.3126 200.514C94.811 200.559 90.3095 200.649 85.8079 200.627C83.5409 200.615 81.2847 200.796 79.0213 200.739C74.8632 200.635 70.7124 200.838 66.5544 200.813C61.1634 200.782 55.7687 200.945 50.3741 201.004C45.9738 201.052 41.5735 201.06 37.1732 201.1C35.6004 201.114 34.0312 201.182 32.4583 201.198C29.3127 201.232 26.167 201.241 23.0214 201.277C19.3587 201.319 15.696 201.376 12.0333 201.438C11.3282 201.449 10.6051 201.336 9.91811 201.565C9.74455 201.398 9.571 201.235 9.40106 201.069C9.44807 198.669 9.30706 196.273 9.11181 193.876C8.80447 190.17 9.02503 186.455 8.84786 182.749C8.7177 180.062 8.73939 177.378 8.77193 174.691C8.79363 172.759 8.68516 170.827 8.75385 168.898C8.78278 168.084 8.93102 167.231 8.92379 166.442C8.90933 165.169 8.95633 163.896 8.95995 162.623C8.96718 159.032 9.07565 155.444 8.99249 151.856C8.94187 149.716 8.74301 147.576 8.81894 145.432C8.95272 141.63 8.80809 137.831 8.72854 134.032C8.69239 132.398 8.96718 130.762 9.31429 129.137C9.71924 127.23 9.45891 125.284 9.5927 123.358C9.66139 122.369 9.79156 121.381 9.91811 120.392C10.5906 115.148 12.4166 110.197 16.1118 105.728C16.5638 105.181 17.0121 104.635 17.3809 104.049C17.5038 104.044 17.5689 104.004 17.5255 103.9C18.1872 102.858 18.9284 101.875 20.1397 101.129C20.5736 100.861 20.8194 100.394 21.1051 99.9965C22.0162 98.7264 23.3179 97.7097 24.6629 96.738C25.1402 96.3944 25.5307 96.0171 25.8922 95.6199C27.1324 94.2428 29.0958 93.5753 30.7047 92.5614C31.0048 92.584 31.2001 92.4826 31.2869 92.2573C33.5503 91.2434 36.0957 90.9336 38.5833 90.4773C38.7424 90.5675 38.8834 90.5224 39.0208 90.4436C39.2016 90.4407 39.3824 90.4379 39.5632 90.4379C39.7801 90.5534 40.0079 90.5055 40.2321 90.452C40.8431 90.528 41.4361 90.4717 42.0146 90.314C42.8245 90.3928 43.6308 90.4182 44.4408 90.3253C44.9108 90.5562 45.1133 90.4999 45.323 90.038C46.1004 88.3229 45.7352 86.5429 45.9304 84.794C45.9738 84.4081 45.9485 84.0195 45.9557 83.6309C45.9557 83.5098 45.9557 83.3886 45.9557 83.2647C45.9594 83.1774 45.9594 83.0901 45.963 83C46.0678 82.6761 46.028 82.3522 45.9702 82.0284C46.0606 81.8228 46.1546 81.6172 46.0064 81.4031C46.0064 81.237 46.0064 81.0708 46.0064 80.9046C45.9485 79.5894 46.2848 78.3052 46.4981 77.0097C46.8994 76.8829 46.7801 76.7083 46.574 76.5253C47.0115 74.061 47.4346 71.5967 47.8974 69.138C48.0456 68.3466 48.3023 67.5693 48.5084 66.7836C48.7254 66.7244 48.87 66.6428 48.6675 66.4597C49.34 64.1588 50.1861 61.9198 51.7481 59.8639C53.0425 58.1628 54.2393 56.4195 55.371 54.6452C56.9113 52.2204 59.558 50.5784 62.2336 48.9647C63.4376 48.2409 64.761 47.6861 66.1349 47.2017C68.3586 46.4131 70.1809 45.1683 72.1406 44.0784C74.5523 42.7378 77.2098 41.6957 79.5672 40.296C79.8203 40.3242 79.9577 40.2369 79.9758 40.0369C81.2522 39.3469 82.4815 38.5893 83.8229 37.9866C85.233 37.353 85.9453 36.1166 87.4422 35.5928C87.7604 35.6604 87.9195 35.5252 88.0244 35.3168C90.3673 34.4212 92.7139 33.5763 94.858 32.3399C97.4577 30.8416 100.028 29.287 102.798 27.9549C104.375 27.1973 106.19 26.6819 107.437 25.53C107.585 25.8511 108.417 25.6568 108.269 26.2003C107.075 26.8255 105.897 27.462 104.671 28.0535C103.29 28.7209 101.793 29.2842 100.556 30.1094C98.4231 31.5344 95.9789 32.6187 93.7914 33.9875C93.1225 34.4071 92.2583 34.6915 91.4665 34.9788C90.0853 35.4829 88.7511 36.0237 87.4892 36.6883C86.1587 37.3896 85.0884 38.3302 83.7723 39.0512C80.623 40.772 77.4593 42.4702 74.2196 44.0868C72.3865 45.0021 70.7522 46.1681 68.8792 47.0214C65.8457 48.4014 62.6675 49.5843 60.0606 51.4797C59.0626 52.2035 58.0394 52.8906 57.3741 53.8482C56.0688 55.7351 54.8793 57.684 53.3788 59.4724C50.9635 62.3451 49.9113 65.5557 49.1412 68.8423C48.5482 71.3714 48.2083 73.9399 47.7383 76.4858C47.3622 78.5305 47.1815 80.5779 47.1525 82.6508C47.12 84.9123 47.2465 87.1963 46.6933 89.4437C46.2812 91.1223 46.292 91.1082 44.072 91.1251C41.0312 91.1504 38.0048 91.3279 35.0725 92.0066C33.9191 92.2742 32.7657 92.5417 31.7352 93.0684C29.5079 94.209 27.5302 95.5355 25.6825 97.0619C23.542 98.8306 21.7342 100.788 19.854 102.692C18.2993 104.269 17.1025 106.08 15.9165 107.857C14.2027 110.425 12.4166 112.991 12.008 115.951C11.9465 116.39 11.9067 116.835 11.7947 117.269C11.274 119.26 10.7895 121.257 10.7316 123.299C10.6919 124.687 10.681 126.073 10.6412 127.461C10.587 129.433 9.76625 131.345 9.92534 133.339C10.0302 134.66 9.83133 135.981 9.92895 137.31C10.0953 139.603 10.0519 141.895 9.90364 144.196C9.7084 147.243 10.0736 150.299 10.0917 153.355C10.1206 158.297 10.1025 163.234 9.90364 168.174C9.83856 169.788 9.81325 171.407 9.8241 173.013C9.83856 175.15 9.87472 177.296 9.90726 179.437C9.95788 182.887 10.1567 186.331 10.0989 189.784C10.0374 193.172 10.6304 196.554 10.5002 199.951C10.4785 200.522 10.7497 200.644 11.4259 200.638C16.2275 200.579 21.0291 200.559 25.8308 200.506C30.3757 200.455 34.9206 200.359 39.4692 200.317C44.1009 200.272 48.7362 200.308 53.3715 200.185C58.1949 200.055 63.0254 200.176 67.8524 200.004C71.262 199.883 74.6788 200.066 78.0993 199.934C81.0858 199.818 84.0832 199.878 87.077 199.852C91.452 199.816 95.8306 199.779 100.206 199.734C104.624 199.689 109.042 199.621 113.461 199.582C115.601 199.562 117.763 199.697 119.875 199.551C123.925 199.269 127.952 199.551 131.991 199.531C135.267 199.514 138.546 199.621 141.822 199.652C146.74 199.7 151.661 199.678 156.578 199.785C159.438 199.847 162.298 199.796 165.158 199.878C167.653 199.948 170.144 199.92 172.642 200.024C174.953 200.123 177.278 199.973 179.595 199.979C181.53 199.982 183.468 200.047 185.402 200.094C189.553 200.193 193.707 200.131 197.862 200.255C200.783 200.342 203.719 200.32 206.652 200.323C210.998 200.328 215.347 200.37 219.693 200.43C224.633 200.494 229.575 200.475 234.514 200.649C235.914 200.7 237.32 200.638 238.723 200.615C238.983 200.613 239.312 200.703 239.316 200.294C239.323 199.627 239.5 198.959 239.5 198.295C239.504 194.926 239.956 191.575 239.92 188.201C239.865 182.799 240.252 177.4 240.137 171.999C240.1 170.253 240.176 168.498 240.14 166.755C240.1 164.865 239.808 162.978 239.909 161.083C239.945 160.41 239.938 159.734 239.934 159.061C239.923 156.791 239.88 154.521 239.898 152.251C239.912 150.606 240.028 148.964 240.057 147.319C240.086 145.675 240.097 144.033 239.981 142.385C239.779 139.552 240.256 136.716 240.097 133.877C240.064 133.294 240.386 132.643 240.209 132.156C239.583 130.427 239.551 128.655 239.374 126.901C239.131 124.535 239.457 122.141 238.831 119.787C238.546 118.719 238.278 117.644 238.108 116.562C237.956 115.574 237.815 114.577 237.418 113.642C236.286 110.98 234.579 108.516 232.873 106.057C231.34 103.849 229.391 101.85 227.406 99.9064C225.171 97.7181 222.799 95.6312 219.853 93.9048C217.061 92.2713 213.923 91.7053 210.727 91.3082C208.666 91.0519 206.489 91.0322 204.359 91.0631C203.962 91.0688 203.68 90.9955 203.622 90.6773C203.448 89.7226 203.072 88.7988 203.022 87.8244C202.805 83.4788 202.971 79.1247 202.006 74.8017C201.337 71.7966 200.993 68.7494 200.024 65.781C199.424 63.9419 198.69 62.1479 197.414 60.5032C196.061 58.757 194.803 56.9715 193.642 55.1409C193.201 54.4453 192.673 53.7637 192.041 53.1666C190.24 51.4712 188.045 50.1109 185.637 48.9731C183.377 47.9057 180.886 47.1313 178.84 45.7935C177.578 44.9683 176.226 44.2473 174.823 43.5799C171.688 42.09 168.662 40.4706 165.751 38.733C163.824 37.5811 162.041 36.2884 159.843 35.4322C158.501 34.9112 157.048 34.5507 155.866 33.7931C153.877 32.523 151.693 31.4612 149.657 30.2333C147.09 28.6899 144.1 27.6085 141.529 26.0454C141.688 25.6286 142.361 25.913 142.582 25.5807C142.582 25.6793 142.654 25.7215 142.77 25.7272C142.871 25.9609 143.073 26.0792 143.395 26.0567C144.324 26.7861 145.568 27.141 146.649 27.6873C149.064 28.9012 151.429 30.1601 153.693 31.5373C154.087 31.7766 154.531 31.9625 154.954 32.1737C154.929 32.2751 154.962 32.323 155.103 32.2667C157.048 33.7058 159.593 34.3395 161.875 35.3308C162.063 35.4998 162.28 35.6237 162.584 35.6322C163.263 36.0518 163.947 36.4686 164.626 36.8883C164.601 37.2093 164.847 37.3304 165.209 37.367C166.883 38.3105 168.56 39.254 170.234 40.1975C170.697 40.6931 171.384 40.9072 172.089 41.0931C173.272 41.9886 174.812 42.459 176.161 43.1546C177.39 43.7911 178.641 44.4079 179.762 45.1598C181.179 46.1089 182.803 46.8017 184.462 47.4157C186.744 48.2578 188.627 49.4885 190.544 50.7305C192.196 51.8035 193.577 53.0202 194.528 54.4903C196.108 56.9321 198.021 59.2386 199.496 61.717C200.389 63.2153 200.957 64.8262 201.366 66.4569C201.163 66.6428 201.308 66.7216 201.525 66.7808C202.465 69.9914 202.837 73.2724 203.459 76.5224C203.253 76.7055 203.137 76.8829 203.539 77.0068C203.756 78.2995 204.088 79.5866 204.03 80.9018C204.03 81.068 204.03 81.2342 204.03 81.4003C203.878 81.6144 203.972 81.82 204.066 82.0255C203.983 82.5606 203.994 83.0929 204.081 83.628C204.294 85.7544 203.86 87.9173 204.71 90.0126C204.894 90.4717 205.111 90.5449 205.596 90.3309C206.406 90.4013 207.216 90.3731 208.022 90.3055C208.601 90.4633 209.197 90.5196 209.805 90.4436C210.029 90.4971 210.253 90.5449 210.473 90.4295C210.654 90.4323 210.835 90.4351 211.016 90.4351C211.153 90.5139 211.294 90.5618 211.453 90.4689C213.746 90.9082 216.11 91.1561 218.229 92.0489C218.374 92.1108 218.511 92.184 218.652 92.2544C218.797 92.46 219.025 92.5586 219.325 92.5671L219.321 92.5642C219.444 92.767 219.643 92.874 219.936 92.874C220.044 93.0627 220.214 93.1866 220.489 93.2064C220.507 93.3387 220.619 93.3275 220.735 93.3049C223.841 94.9778 226.108 97.29 228.516 99.4924C228.881 99.8247 229.156 100.219 229.47 100.585C229.546 100.853 229.507 101.182 230.038 101.191C230.877 101.937 231.647 102.726 232.312 103.573C232.233 103.776 232.428 103.883 232.558 104.015C235.133 107.308 237.812 110.597 238.806 114.427C239.793 118.229 240.762 122.054 240.473 125.983C240.422 126.678 240.581 127.385 240.646 128.089C240.538 128.213 240.484 128.334 240.668 128.447C240.701 128.65 240.534 128.87 240.748 129.058C240.639 129.188 240.628 129.306 240.813 129.405C241.341 132.001 241.355 134.612 241.247 137.231C241.239 137.437 241.261 137.642 241.268 137.848C241.153 137.952 241.138 138.065 241.225 138.183C240.997 139.636 241.051 141.098 241.138 142.548C241.304 145.362 241.167 148.17 241.124 150.98C241.091 153.028 241.073 155.078 241.073 157.126C241.077 159.722 240.994 162.322 241.221 164.918C241.156 165.085 241.095 165.254 241.221 165.42C241.203 165.648 241.185 165.876 241.167 166.104C240.632 166.27 240.632 166.296 241.243 166.836C241.268 169.18 241.315 171.523 241.319 173.866C241.323 176.08 241.301 178.293 241.257 180.507C241.185 184.32 241.091 188.133 241.008 191.947C241.004 192.051 241.015 192.155 241.022 192.259C240.95 192.369 240.863 192.476 240.979 192.6C240.831 195.371 240.679 198.146 240.534 200.917C240.531 200.959 240.599 201.004 240.636 201.049C240.216 201.069 240.386 201.452 240.111 201.562C237.703 201.283 235.274 201.387 232.855 201.35C229.488 201.297 226.122 201.289 222.756 201.232C221.472 201.212 220.145 201.041 218.913 201.108C215.984 201.269 213.08 201.049 210.166 201.069C207.194 201.089 204.222 201.015 201.25 200.99C195.794 200.945 190.334 200.917 184.878 200.866C182.032 200.838 179.187 200.765 176.338 200.734C173.131 200.7 169.923 200.739 166.72 200.658C162.327 200.548 157.934 200.627 153.537 200.489C148.942 200.345 144.335 200.461 139.736 200.444C137.538 200.435 135.339 200.387 133.141 200.359C132.848 200.266 132.552 200.182 132.255 200.351C127.435 200.269 122.616 200.269 117.8 200.351C117.478 200.182 117.185 200.269 116.888 200.362Z" fill="#EF2380"/>
<path d="M114.755 20.8493C116.274 19.872 117.326 18.5849 118.548 17.4077C118.729 17.2359 119.582 17.5401 119.127 16.9149C119.21 16.8219 119.289 16.7262 119.372 16.6332C119.763 16.6163 120.179 16.5403 120.385 16.9177C119.788 17.3627 119.333 17.9062 118.834 18.4103C116.726 20.5338 114.198 22.3138 111.573 24.0233C111.168 24.288 110.814 24.6147 110.268 24.7189C109.91 24.5809 109.773 24.8541 109.534 24.9329C109.129 25.0681 108.735 25.6173 108.185 25.0935C109.776 24.1641 111.389 23.2544 112.705 22.0687C112.976 21.8237 113.367 21.6576 113.699 21.4548C113.942 21.4492 114.234 21.5055 114.227 21.1929C114.227 21.1929 114.307 21.2013 114.307 21.1985C114.6 21.1957 114.799 21.1168 114.755 20.8493Z" fill="#EF2380"/>
<path d="M131.467 17.4077C133.604 20.0156 136.746 21.8434 139.667 23.843C139.83 24.0289 140.054 24.1528 140.322 24.2317C140.824 24.5189 141.327 24.8062 141.829 25.0907C141.544 25.3554 141.359 25.5694 140.886 25.1554C140.68 24.9752 140.343 24.4964 139.747 24.7133C139.36 24.5837 139.027 24.395 138.68 24.2007C137.747 23.6769 137.013 22.9897 136.128 22.432C133.607 20.8493 131.626 18.8722 129.63 16.912C130.05 16.4107 130.606 16.5572 130.679 16.9824C130.765 17.5063 131.16 17.3317 131.467 17.4077Z" fill="#EF2380"/>
<path d="M123.686 8.55038C124.142 8.14764 124.471 8.2096 124.688 8.71091C124.199 11.2456 123.028 13.5832 121.354 15.7799C120.992 15.8531 120.891 15.5349 120.616 15.4842C120.533 14.8815 121.43 14.6224 121.444 14.0535C121.668 13.9577 121.849 13.8451 121.734 13.6141C122.681 11.9947 123.371 10.3162 123.686 8.55038Z" fill="#EF2380"/>
<path d="M125.324 8.71091C125.541 8.21242 125.87 8.14765 126.322 8.55038C126.51 10.1163 127.273 11.5582 127.891 13.034C127.974 13.2311 128.032 13.4367 128.104 13.6367C128.22 13.8028 128.216 14.0479 128.567 14.0619C128.838 14.4844 129.113 14.904 129.384 15.3265C129.135 15.4926 128.889 15.6616 128.639 15.8278C126.933 13.6254 125.859 11.2456 125.324 8.71091Z" fill="#EF2380"/>
</svg>
